<svg id="Warstwa_3" data-name="Warstwa 3" xmlns="http://www.w3.org/2000/svg" viewBox="0 0 813.78 238.31"><title>zacmieniea4horiz</title><path d="M247.44,322.68v-9.56h-7.58c.12,1.54.24,3,.38,4.92-.33.59-.9,1.58-1.59,2.77l-2-2.93c.5-1.59,1-3,1.5-4.81h-6.48l0-.39,6.5-.28c-.2-5.23-.38-10.15-.57-15.17l1.84-1.35c.18,5.32.37,10.61.55,16,2.2,1.2,4.5.65,6.74.42a1.93,1.93,0,0,0,1.24-1.41c0-1.66.62-3.39-.64-5a5.22,5.22,0,0,1-.58-2.92c0-1.62.25-3.25.17-4.86-.31-6.09-.61-12.2-1.09-18.28-.52-6.45-1.27-12.89-1.87-19.33-.31-3.29-3.55-7.1-6.86-7.72-2.27-.42-4.58-.64-6.88-.93a3.24,3.24,0,0,0-1.38,0c-4.5,1.58-9.15.25-13.7.75-4,.43-8.06.66-12,1.47-4.85,1-8.89,3.7-12.58,7-2.44,2.18-2.68,4.95-2.74,7.85,0,1.22.13,2.44,0,3.65-.25,3.22-.75,6.43-.88,9.66-.27,6.58-.27,13.17-.56,19.75-.18,4-.68,8-1.06,12.24l3.19.65-2.58.25c-.15.44-.37.77-.33,1.06.6,5-.85,9.43-3.54,13.7-2.27,3.6-2,3.76-1.85,7.79a16.69,16.69,0,0,1,0,1.73,7.53,7.53,0,0,1-.67,2.8,67,67,0,0,1-.81-7.45c0-6.68-.19-13.41.48-20,1.24-12.22.5-24.47,1-36.69.16-3.7-.14-7.37-.13-11,0-7.13-2.9-13.71-3-21-3.37-.86-6.53-2.49-10.24-2.35-2.27.09-4.57-.58-6.86-.57-3.21,0-6.43.33-9.64.61-.44,0-.84.64-1.41,1.09l-7.89-6.55c3.67-1.91,7.33-1.66,11-1.71,2.18,0,4.38-.54,6.54-.42,3.66.2,7.31.65,10.94,1.14,2.84.39,5.59,1.37,8.53.23,1.12-.44,2.51-.2,3.79-.23l17.7-.42A1.53,1.53,0,0,0,201,236c-1.8,0-3.61-.12-5.41-.14-2.09,0-4.17,0-6.26,0a23,23,0,0,1-5.83-.5h2.38c10.89,0,21.78-.23,32.67-.06,4.39.07,8.4-1.16,12.51-2.24.32-.09.75-.22.89-.47,1.62-2.9,4.44-2.83,7.18-2.9,3-.08,6,0,9-.14,2.3-.09,4.59-.39,6.89-.58.95-.07,2.35-.52,2.77-.07a7.83,7.83,0,0,1,1.61,3.47c.39,1.55.41,3.19.68,4.77.3,1.79,1.13,3.53-.77,5.1-.54.45-.56,1.73-.55,2.62,0,3,.05,6,.32,9,.68,7.49,1.71,14.95,2.18,22.45.38,6.12.11,12.27.2,18.41a54.6,54.6,0,0,0,.45,6.89,18.08,18.08,0,0,1-.48,8.16c-.9,2.91-1.57,6-.68,9.19.46,1.63.2,3.45.25,5.19.11,4.5,0,9,.4,13.5a70.53,70.53,0,0,1-.15,13.16c-.34,3.81.24,7.4,2.78,10.41a20.87,20.87,0,0,0,2.83,2.31,6.34,6.34,0,0,1-1.15,1.83,30.9,30.9,0,0,0-7.81,10.78c-1.2,2.73-2.26,5.33-2,8.58.27,3.73-.58,7.55-1.24,11.44a35.09,35.09,0,0,1-.77-4.39,75.31,75.31,0,0,0-3-17.38,2.47,2.47,0,0,0-1.33-1.47c.34,1.54.69,3.08,1,4.62l-.42.09c-1.33-2.09-2.67-4.16-4-6.26a8.94,8.94,0,0,0-3.77-3.4c-1.49-.72-2.68-2.05-4.39-3.41,2.49-2.31,4.65-4.39,6.9-6.37a7.45,7.45,0,0,0,2-8.8c.5-1.2,1-2.28,1.39-3.39a3.2,3.2,0,0,0,0-1q.22-12.45.46-24.91a4.86,4.86,0,0,0-.42-2.42c-.08,1.65-.17,3.31-.25,5Z" transform="translate(-14.3 -178.13)"/><path d="M208.2,302l2.32.2-1.47.67c.59,3.56,2.09,6.06,4.4,7.43a53.39,53.39,0,0,0,2.54-5.82c.59-1.91,2.08-2.6,3.54-3.47a3.25,3.25,0,0,1,4.15.57c4,4.14,7.26,8.71,6.64,15-.2,2.08-2,3.88-4,3.53s-3.72-1.13-5.61-1.27c-1.68-.14-2.34-1-3.11-2.59,3.39,0,6.68,2.51,9.6-.58A15.2,15.2,0,0,0,222.37,303c-.23.68-.47,1.25-.61,1.85a50.89,50.89,0,0,1-1.36,5.67c-.61,1.65-1.57,3.17-3.92,2-.51-.26-1.48.41-2.84.84-.84-.53-2.31-1.39-3.72-2.34-4.37-3-4.26-7.79-5.13-12.24a6.38,6.38,0,0,1,2-6.42c2.17-2.09,2.8-2.25,5.11-.11.34.31.69.59,1.38,1.18-1.33,1.17-2.64,2.34-4,3.48C207.07,298.77,207.06,298.76,208.2,302Z" transform="translate(-14.3 -178.13)"/><path d="M194.34,300.34,197,297.5l2.38,3.16c-3.42,4-.92,8.66-1.81,13.08l3.5.38-3,.34c-.93,1.51.33,3.82-2.14,4.62v-4.33l-1.52-.53c.42-.35,1.43-.81,1.43-1.26,0-3.68-.21-7.36-.44-11C195.31,301.43,194.75,301,194.34,300.34Z" transform="translate(-14.3 -178.13)"/><path d="M743.32,298.63l-1.89-2.26c-.38.15-1,.23-1.13.5-.44,1.05-1.08,1.32-2.34,1.22-2.24-.17-4.5,0-7,0l5.34-4.18-2.75-1.71c1.86-.63,3.72-1.12,5.44-1.88,2.72-1.19,5-2.92,5.12-5.95.16-3.82.08-7.65,0-11.47,0-4.13,0-8.27-.27-12.39-.15-2.42-.8-4.81-1.16-7.23-.66-4.42-1.19-8.86-2-13.27a14.18,14.18,0,0,0-4.62-8.08c-3.37-3.1-7.24-2.68-11.15-.83l-.8.36a5.31,5.31,0,0,1,1.5-5.27c2.6-2.78,5.48-5.34,8.21-8,1.88-1.86,3.68-3.78,5.76-5.93,1.62,4.77,5.26,6.9,9.81,8.08a4,4,0,0,1,1.77.92c2.51,2.43,5.86,2.29,9,2.47A4.1,4.1,0,0,0,763,222.2l-3.12-.51-.4-.5a3,3,0,0,1,.9-.22q16.44.89,32.88,1.81a8.16,8.16,0,0,1,1.72.16c3.94,1.11,6.83-.39,9-3.24,1.64-2.16,3-4.52,4.66-7.14,2.06,4.29,3.4,8.58,7.84,11.46,3.86,2.51,6.65,6.42,11.61,8-3.56.59-7.12,1.2-10.69,1.77-2.16.35-4.47.45-4.93,3.1a1.34,1.34,0,0,1-.59.75c-3.41,2.27-5.65,5.46-7.57,8.77a27.5,27.5,0,0,0-2.31,6.62c-.63,2.29-1,4.65-1.85,6.92a22.68,22.68,0,0,1,.1-8.69c.56-3.28,1-6.6-.88-9.69-.44-.7-1.06-1.73-1.73-1.82-2.22-.32-3.47-1.94-5.23-2.79a9.58,9.58,0,0,0-4.9-1.28c-2.73.34-5.25-.26-7.85-.55a51.27,51.27,0,0,0-16.21.68,12.13,12.13,0,0,1-2.37.41,6.91,6.91,0,0,0-7.19,6.19,42.89,42.89,0,0,0-.21,9.87,53.61,53.61,0,0,1,.25,10.21c-.6,6.66.64,13.23,2.34,19.64a8,8,0,0,0,5.89,5.24,32.13,32.13,0,0,0,11.36.35,12.39,12.39,0,0,0,2-.43c2.08-.59,3.57-2.58,6.2-1.91,2.17.55,4.54.49,6.66,1.15a21.53,21.53,0,0,0,11.83.36,18,18,0,0,1,5-.26c-1.9,1.84-3.62,3.83-6.64,3.88-3.8.06-7.61,0-11.41.11-3.18.08-6.45,0-8.78,2.51a4.86,4.86,0,0,0,3.41,3.47c5,2,9.94,4.14,15.63,3.63a5.42,5.42,0,0,1,2.74.22c2.87,1.46,4.81-.13,6.68-1.63,2-1.65,2.1-3.86,1.42-6.13-.11-.37-.38-1-.23-1.1,2.27-1.84,1.1-4.06.91-6.17,0-.09.12-.18.37-.56a7.83,7.83,0,0,1,1.09,2c.6,3.13,1.07,6.28,1.62,9.42.72,4.11-3.37,8-6.39,9a15.28,15.28,0,0,1-8.07,1c-4.26-.79-8.68-.86-13-1.35a10.87,10.87,0,0,1-3.91-1.08c-2.43-1.35-5.19-2.12-7.35-4-1.4-1.2-3.48-.87-5.34-.43-1.18.28-2.38.46-3.84.75-.07,2.08-2.6.83-3.45,1.48.14,5.93.27,11.59.41,17.5l2.48-.54c.08,1.49.09,2.85.25,4.2a5.21,5.21,0,0,0,.69,1.48h0v12.64l.44.11c.53-1.32,1.07-2.64,1.76-4.35-.57,4.5-1,8.56-1.62,12.61a4.55,4.55,0,0,0,2.28,4.68c.28.19.7.29.86.53,2.92,4.6,8.16,3,12.42,3.95,6.06-1.48,12.4-.34,18.46-1.73,1.91-.43,3.82-.86,5.69-1.42,5-1.51,7.91-4.54,8.18-9.51.06-1.06.15-2.11.24-3.42l1.51.28c.08,3.68-.53,7.31.39,10.57,1.29,4.55,3.12,9.1,6.56,12.86-.79,1.13-1.89,1.1-3.18.64-1.62-.58-3.31-1-4.9-1.6-1.76-.69-3.25.24-4.47.9-.77.42-.91,2.05-1,3.17-.45,3.57-.77,7.15-1.35,10.74V362c-1.37,1.42-1.37,1.42-1.9,4.49v-4.93a16.29,16.29,0,0,0-2.51-.4c-4.52-.05-9-.12-13.55,0a19,19,0,0,0-9.39,2.95c-7,4.15-11.19,10.34-14.75,17-.82,1.53-1.68,3-2.39,4.6-1.1,2.43-2.09,4.89-3.28,7.69l-5.47-6-.86.43c-.11,1.47-.23,2.93-.35,4.4-.9-4-.65-8.38-5-11.3a9,9,0,0,0-.3,1.86c.22,3.94.54,7.87.72,11.81a38.26,38.26,0,0,1-.28,4.27l-.78,0a10.77,10.77,0,0,1-.26-1.93,60.62,60.62,0,0,0-1.23-15.89,28.73,28.73,0,0,1-1-5.8c0-1.22-.16-2.64,1.28-3.75,1.18-.9,1.78-2.43,2.71-3.64,1.85-2.42,2-5.13,2-8.09l1.13,2c1.59-3.9,1.2-7.41.09-11l-1.11,2.67c-.15-12.3-.27-24.47-1.76-36.61l-.32,6.65H748v-4.84c-1.77-.14-2.09-2.88-4.71-1.65-2.9-5.4-4.11-10.74-.06-16.15-.15.93.48,1.27,1.07.67a3.32,3.32,0,0,0,.74-2.23c0-.94-.34-1.14-2.15-1.84Z" transform="translate(-14.3 -178.13)"/><path d="M764.54,324.28c2-.63,2.23-2,1.46-3.49a4,4,0,0,1,.32-4.61l1.84,2.06-1.65,5.89-2,.16S764.54,324.28,764.54,324.28Z" transform="translate(-14.3 -178.13)"/><path d="M468.91,233.55c-1,7-.5,14.11-.5,21.18,0,3,.37,6.12-1.68,8.75,1.9,2,4.21.77,6.51,1.35-1.68,3.39-2.1,7.1-4.2,10.36-1.39,2.14-1.34,5.33-2,8.1l2.35,1.3a5.8,5.8,0,0,1,0,1.19c-.44,2-1,4.05-1.36,6.09a27.27,27.27,0,0,1-1.58,4.64c-1.16,3-2.6,6.23-1.42,9.88.91,2.83.6,6.1,2.89,8.42.22.21.2.69.28,1.05,1.24,5.45,2.54,10.88,3.7,16.35,1.12,5.27-.05,10.18-2.29,14.92a5.37,5.37,0,0,0-.54,3.43c1.87,6.44.95,12.64-1,18.8a7.51,7.51,0,0,1-.78,2c-1.34,1.9-2.77,3.73-4.41,5.92-.41-.7-1.37-1.58-1.33-2.39.13-2.3-1-4.36-.55-6.81.35-1.89-.35-4.16-1-6.08a10.37,10.37,0,0,1-.3-7.07,16.13,16.13,0,0,0,.34-2.38l-2,1.94a9.41,9.41,0,0,1,.09-5.45c1.67-4.22.29-8-1.52-11.62a27.4,27.4,0,0,1-3.26-11,21.12,21.12,0,0,1,1.32-9.56c1.18-2.93,1.16-6.42,1.6-9.68s.63-6.61,1.22-9.86c.36-2-.56-3.32-1.46-4.7-1.19-1.81-2.56-3.49-2.44-6.16l1.85.17a18.85,18.85,0,0,0,2.76-12.16c-.41-3.26-1-6.5-1.27-9.77a31.31,31.31,0,0,1,.28-6.26c.63-5,.28-9.77-2.25-14.36l1.61-.89c0-4.25-2-7.66-4.13-11.05l1.77-.6a42.77,42.77,0,0,1,2.46,5.15,42.66,42.66,0,0,1,1.15,5.66c3.33-4.06,3.88-8.52,3-13.26a34.5,34.5,0,0,0-1.19-4c-1-3.19-1.34-6.76-4.13-9a15.76,15.76,0,0,1,.11-2.18c.56-3.16.05-5.4-1.8-8.5a9.44,9.44,0,0,1-.51-2.78c2.83,1.22,3.08,4.12,4.76,6l2.52-.16c.33,1.25.58,2.53,1,3.73.28.77,1.05,1.37,1.26,2.15,1.1,4.19,1.87,8.5,3.21,12.6C466.84,229.12,466.58,232,468.91,233.55Zm-2.62,110a18.38,18.38,0,0,0,1.29-3.83,25.47,25.47,0,0,0-.19-5.08,10.15,10.15,0,0,0-.8-2.71c-.63-1.51-1.34-3-2-4.48a1.88,1.88,0,0,0-3.37-.31,7.63,7.63,0,0,0-.49,3.35c0,.68.57,1.39.51,2a4.59,4.59,0,0,0,2.31,4.92C462.44,342.68,463.07,342.32,466.29,343.54Z" transform="translate(-14.3 -178.13)"/><path d="M455.64,216c-.05,1.18.23,2.52-.21,3.51-1.34,3.09-3,6.05-4.57,9.26.37.86.84,1.94,1.3,3l-3-2.91C451.3,224.61,453.47,220.29,455.64,216Z" transform="translate(-14.3 -178.13)"/><path d="M467.43,215.55c-2.8-.59-2.9-3-3.18-5.3-.22-1.78-.35-3.58-.63-5.35,0-.22-.73-.32-1.12-.48l.67-2.92.64.07c.32,1.39.7,2.76.94,4.17.46,2.74.91,5.46,2.46,7.84C467.52,214.06,467.37,214.88,467.43,215.55Z" transform="translate(-14.3 -178.13)"/><path d="M470.23,222.1a6.67,6.67,0,0,1-2.16-4.75A7.22,7.22,0,0,1,470.23,222.1Z" transform="translate(-14.3 -178.13)"/><path d="M389.26,331.78a23.67,23.67,0,0,0,1.13-4.13c.19-2.18.05-4.4.3-6.61,0,.87.06,1.74.12,2.61.15,2.16,1.49,2.14,3.42,1.72a16.42,16.42,0,0,1-.49-10.07c.3-1.35-.61-2.59-2.78-2-.11,1.32-.22,2.62-.33,3.93.54-4.78-3.05-10.16,2.15-13.48l-4.15-6.26c.06,4.68.37,8.89-2.36,12.67l-7.56-7c-3.39,4.68-.59,9.68-2.62,14.08.21-3.3.41-6.59.61-9.92-2.13-.13-2.05,1.31-2.31,2.22-.82,2.91-.42,6.1-2.14,8.83a1.21,1.21,0,0,0-.07.71c.57,3.45,1.19,6.9,1.69,10.36a17,17,0,0,1-.08,3.18c-.05,1.08-.56,2.36-.13,3.2,1.9,3.73.1,7.34-.15,11a57.36,57.36,0,0,1-1.66,8.63,17.12,17.12,0,0,0,1.07,10.71c.88,2.15,1.7,4.54.83,7.18-.57-.25-1-.3-1.18-.53-2-2.85-4.49-5.54-5.92-8.65a54.65,54.65,0,0,1-3.74-11.9c-.53-2.58.07-5.36,0-8,0-1.32-.39-2.63-.4-3.94a9.25,9.25,0,0,1,.49-2.79c1.31-4.18,2.7-8.34,4-12.53a9.72,9.72,0,0,0,.33-2.9,102,102,0,0,0-1.21-15.28,42.66,42.66,0,0,1-.28-14.25c1.28-7.12-.5-13.46-3.9-19.36-3.14-5.45-2.4-10.62-.36-15.86a38.33,38.33,0,0,1,4.36-8.55c2.48-3.47,3-7.48,2.66-11.6a4.91,4.91,0,0,0-.64-2.08,45.56,45.56,0,0,1-6.34-19.88,17.72,17.72,0,0,1,1.2-8.09,11.36,11.36,0,0,0,.25-3.16c0-.24-.18-.48-.18-.71,0-1.1-.39-2.5.16-3.25,2.51-3.41,0-7.73,2.51-11.17,1.52-2.11,1.9-5.06,5-5.68-.91,3.42-1.94,6.86-2.73,10.36a50.33,50.33,0,0,0-.43,5.1,25.82,25.82,0,0,1-.79,4.65,18,18,0,0,0-.53,9.44,50.89,50.89,0,0,0,5.11,13.71,35.38,35.38,0,0,1,4.24,16.56c.09,3.88.44,7.76.68,11.65-.56-1.41-1.11-2.82-1.88-4.75-.4,5.83-.55,11.14.74,16.39.25,1,.74,2.14,2.26,2-.39,1.83.53,3.14,2.11,5a22.3,22.3,0,0,0,1-3.33,21.78,21.78,0,0,0-.12-3.22l4.94,4.63c-2.19-.45-2.93.86-3.36,2.56a19.4,19.4,0,0,0,0,9.75,7,7,0,0,0,3.57,4.49c1.77,1.05,3.27.23,3.34-1.81.07-2.2-.06-4.4-.1-6.59.84,1.05.46,3,2.35,3.34,3.56-5,3.5-5.37-1.53-9.56-1.35,2-.6,4.23-.75,6.33-.16-1.32-.24-2.65-.52-3.95A31.48,31.48,0,0,0,387,272.5c4.68-1.38,7.76-5.12,7.89-9.59a4.59,4.59,0,0,0,0-.74c-.67-4.34.32-8,4.57-10.31a1.08,1.08,0,0,0,.43-.57,7.94,7.94,0,0,0,.19-1c3.35-.9,3,3.19,5.33,3.6-.64,2.43-1.27,4.87-1.94,7.44,1.63.52,3,.85,4.06-.38,1.28-1.42,1.18-3.41-.22-7.67a6.73,6.73,0,0,1,.8-.69,7,7,0,0,1,.95-.38c.2.08.41.13.4.16-.32,3.63-.66,7.27-1,11h-5.32v6.57c4.07.35,5.31-2.77,6.92-5.16a13.76,13.76,0,0,0,2.17-5.06c.69-3.72,3.37-5.8,6.19-7.85a22.73,22.73,0,0,0,3.31-2.32c1.05-1.14,2.35-2.51,2.5-3.89.34-2.94,1.27-6-.47-8.93-.47-.8-.19-2.1,0-3.14.47-3,1.06-6,1.63-9.13l-4-1.49a9.58,9.58,0,0,1,0-3c3.61-11,8.23-21.55,16.55-30.32-.54,2-1.09,4-1.61,5.92s-1.15,4-1.53,6.06a24.62,24.62,0,0,0,.59,13,5.29,5.29,0,0,1,0,3.15c-1.79,5.51-1,10.9.82,16.19.66,2,0,3.64-.65,5.32s-.43,3.25-.5,4.92c-.34,7.18,1.75,14,2.5,21.08.27,2.55.1,4.85-1.68,6.9a3.72,3.72,0,0,0-.71,4.42c.48,1,.61,2.22,1.29,3,2.66,3.15,1,6.77,1.34,10.16,0,.48-.48,1.12-.91,1.53a15.71,15.71,0,0,0-4.35,7.57,7.26,7.26,0,0,1-1.05,2.34,5.33,5.33,0,0,0-.65,4.94,14.41,14.41,0,0,1,0,8.55c-.1.41.52,1,.72,1.49a2.79,2.79,0,0,1,.39,1.5,10,10,0,0,0,1.76,8.66c.86,1.21,1.39,2.63,2.21,3.86,1,1.53,2.14,3.07,5.25,2.82-2.48,2.89-4.54,5.26-6.55,7.66a11.11,11.11,0,0,0-2.31,8.92c.77,5.78,1.81,11.54,2.77,17.58A6.29,6.29,0,0,1,432,364c-2.67-5.41-5.53-10.82-6.55-16.76-1.09-6.34-1.44-12.78.25-19.15a6.12,6.12,0,0,0,.33-2.48c-.05-.3-1.09-.46-1.68-.68,1.2-1,.53-1.75-.56-3.2-.18,1.65-1.28,2.68.65,3.13l-1.48,2.58-4.73,1.45c-.68-1.66.63-3.73-1-5.43-.21-.23,1.19-2.07,2.06-3,.45-.46,1.38-.49,2.09-.71-1.43,2.16-1.67,4.43-.88,7.51,1.53-2.83.54-5.24.87-7.5l2.47-1.61c-.13,1-.26,1.95-.44,3.32,2.32-1.46,2.32-1.46.34-3.24,0-1.67.25-3.42-.17-5-1.64-6.13-.93-12.3-.3-18.41.71-6.88,1.67-13.71.15-20.58-8.46,2.65-13.91,6.85-14.14,11.2l4,1c-.05.86-.19,2.2-.2,3.54,0,3.79-.11,7.58,0,11.37,0,1,.78,1.9,1.21,2.89l-1.6,1.44c-.39-.64-1.17-1.41-1-1.73,1.57-3.06.63-6.28.86-9.41a14.06,14.06,0,0,0-.2-2.06l-2.36.25v-4.17c-.11,3.15-1.62,5.77-3.08,8.41-.28.51-.69,1.36-.46,1.66,1.13,1.56-.37,2.41-.72,3.6-.6,2.08-1.76,4.11-.5,6.49,1.62,3,3,3.5,5.74,1.44.58-.44,1.14-.91,1.87-1.5.78,1.59-.09,2.8-.75,3.79-2.15,3.2-1.69,6.59-1.19,10a5.76,5.76,0,0,1-.14,1.28c-2.86-.95-5.84-1.12-7,2-1.69,4.44-4.43,8.77-3.21,13.83a37.59,37.59,0,0,0,2.17,6.25c1,2.24,2.26,4.36,3.82,7.31a9.26,9.26,0,0,0-2.07,1.17c-2.53,2.37-1.21,5.38-.26,7.53,1.52,3.4,2.73,6.89,4.16,10.31a14.89,14.89,0,0,0,2.13,2.83c-6.86,4.07-9.15,10.95-11.12,18.23-.22-1.52-.45-3-.66-4.56a18.84,18.84,0,0,0-2.57-8c-2.09-3.26-4.08-6.53-9-7.52,1.71-.8,2.72-1.26,3.72-1.75a8.36,8.36,0,0,0,4.8-8.08c-.57-6.55-1.28-13.09-1.67-19.65a77.13,77.13,0,0,1,.54-9l-3.45-.64,0-.45a6,6,0,0,1,1-.2c2.74-.07,3-.33,2.69-2.9a7.75,7.75,0,0,0-.18-2.18,8.89,8.89,0,0,0-1.53-1.88c-.71.58-1.76,1-2.06,1.75-.52,1.23.23,3-1.71,3.6Zm6.81-48.15c-1,.47-1.74,1.11-2.42,1.06-1.25-.08-1.73.6-1.77,1.44a63.18,63.18,0,0,0,.06,12.06C395.5,295.55,396.53,291.78,396.07,283.63Zm-8.34,14-2.77,4c-1.54,2.21-1.25,2.88,1.7,3.93C388.36,303.33,388.1,300.87,387.73,297.61Zm2.77-3.18c1.17-6.1.92-8.17-1.11-10.05C389.28,287.87,388.84,291.2,390.5,294.43ZM412.12,288h-.94c-.84,1.06-.82,2.06.94,3.67Z" transform="translate(-14.3 -178.13)"/><path d="M441.51,309.41l-4.36,5.11-3.81-5,4.38-4.91Z" transform="translate(-14.3 -178.13)"/><path d="M437.25,317v11.59h-.18V317Z" transform="translate(-14.3 -178.13)"/><path d="M414.34,334.76c-1-1.57-2-3,.65-3.92C416.57,332.42,415.15,333.45,414.34,334.76Z" transform="translate(-14.3 -178.13)"/><ellipse cx="399.98" cy="140.39" rx="0.08" ry="3.11"/><path d="M437.9,301.34c-.17-1.81-.26-2.86-.36-3.9l.36,0Z" transform="translate(-14.3 -178.13)"/><path d="M718.93,233.91A3.83,3.83,0,0,1,716,231Z" transform="translate(-14.3 -178.13)"/><path d="M725.55,278.76v2.59h-.22v-2.6Z" transform="translate(-14.3 -178.13)"/><path d="M516.7,295.67c1.38,1.4,3.14,1.09,4.81,1.12,4.76.09,9.53.13,14.29.26,2.37.06,6.17-2.49,6.61-4.93a18.13,18.13,0,0,1,1.69-4.33c1.26-2.78,2.07-5.78,3.07-8.68a1.68,1.68,0,0,1,1-1.07l.57,4.88A23.28,23.28,0,0,0,552.47,293c.85,1.3,2.73,1.89,4.22,2.85l-1.64,1.4c1.8,1.88,4.05,2.28,6.47,2.54l-2.16.29-.07.4,4,.52c-.53.47-.73.79-1,.82-4.54.6-8.08,3.1-11.21,6.4-1.54,1.62-1.8,3.71-1.91,5.83a11.67,11.67,0,0,1-.16,2.53c-1.23-1.56-3-2.7-2.67-5.17a4.81,4.81,0,0,0-3.25-4.74,23.89,23.89,0,0,0-3.75-.73c-1.91-.23-3.79.09-5.71-1.07-1.16-.7-3.09-.12-4.67,0q-5.87.47-11.72,1c-1.76.17-2.89,1.27-4.15,2.61-2.33,2.48-3,4.84-1.29,7.85.14.25,0,.66,0,1a226,226,0,0,0,4.22,29.45,6.14,6.14,0,0,0,6,5.36,33.69,33.69,0,0,1,4.72.47c5.93,1.28,11.74.6,17.65-.46,5-.9,10.21-1.26,14.52,2.62.49.45,1.81-.81,1.64,1.07-.07.77.92,1.66,1.6,2.76l.57-2.27c1,9.85,1.3,19.09-.4,28.48l-2.95-10.79c-.32.5-.64,1-1,1.53-.12-.14-.34-.27-.35-.42a33,33,0,0,0-.11-5c-1-5.42-2-6.66-7.4-6.4-4.2.21-8.37,1.2-12.55,1.89a37.62,37.62,0,0,1-14.19-.19c-3.1-.69-5.4.32-7.52,2.32-3.09,2.89-4.66,6.84-6.39,10.63-.81,1.77-1.26,3.71-2,5.53a9.53,9.53,0,0,1-1.29,1.84c-2.36-5.75-6.5-9.63-10.8-13.27,1.81-1.35,3.76-2.41,5.21-4,2.62-2.84,2.71-6.66,2.73-10.31a26.63,26.63,0,0,0-1.29-7.84v7.49c-.72-4.56,0-9.25-2.41-13.69-.32.91-.65,1.82-1.23,3.49-.31-10.3-.12-19.9-1.89-29.4a12.23,12.23,0,0,0-.42,4.26,39.62,39.62,0,0,1-.17,4.21c-.35-7.1.37-14.33-2.5-21.3a4.59,4.59,0,0,0-3.12,3.19c-1,3-2.31,5.91-3.39,8.9-.47,1.31-.7,2.73-1.15,4.56-1-6.36-3.92-11.39-6.9-16.36-.76-1.27-2.31-2-3.84-3.3,4.78-3.76,7.35-9.21,10-14.27,1.56,2.3,3.06,4.76,4.8,7,2.31,3,3.86,2.5,5.61-.9,2.74-5.34,2.49-11,2.46-16.72,0-4.2-.7-8.4-.68-12.59a28.07,28.07,0,0,0-2.42-11.21,4,4,0,0,1,.41-3.75c1.55-2.81,1.4-5.75.47-8.68-1.15-3.63-3.35-4.6-7.11-3.08l.74-5.31c.8-5.8,1.65-11.6,2.37-17.41a9,9,0,0,0-.55-2.75l2.9-3.85c-.09,1.36-.19,2.9-.29,4.42,2.19,2,2.19,2,13.08,3l-1.6,1.85c1.4.88,2.11,2,4.31,1s5-.43,7.46-.4c1.12,0,2.23.51,3.35.58,3.81.23,7.62.47,11.43.5a20.63,20.63,0,0,0,5.64-.71c3-.86,6-2,8.84-3,1.86,3.88,3.2,8,5.14,11.83,2.17,4.37,3.2,9.36.62,14.23a5.11,5.11,0,0,0-.37.91c-1.59,5.54-5.23,9.26-9.68,12.43a6.7,6.7,0,0,0-3,5.46,44.25,44.25,0,0,0,.43,4.44c-1.9-.93-2.37-2.07-2.87-7.32-.43-4.56-.26-6.6.76-8.81.56,1.39,1.12,2.75,1.67,4.12l.69-.14.39-1.82,2.1.49c1.25-2.49,2.58-5,1.76-8.16l-1.93-.83a8.51,8.51,0,0,1,.51-.91c.53-.68,1.12-1.31,1.61-2,.23-.35.48-1.11.36-1.21-2.44-2.07-.08-5-1.32-7.38-1.07-1-2.48-1-4-.83-1.68.22-3.3.31-4.84-.94s-3.56-.57-5.1.29a3.26,3.26,0,0,1-3.77-.14,10.55,10.55,0,0,0-7.89-1.58c-1.86.41-2.55,1.11-2.72,2.78a2.61,2.61,0,0,1-.69.18c-5-.3-7.42,1.8-7.07,8.12a35,35,0,0,0,.1,4c.33,1.93.65,4,3.22,4.38a45.72,45.72,0,0,0-.66,6.9c.35,6.61,1,13.19,1.48,19.79.17,2.29.34,4.59.53,6.89a19,19,0,0,0,.3,2.61c.5,2.27,1.05,4.51.34,6.84a4.2,4.2,0,0,0,0,1.33c.09,3.07.75,3.66,3.92,3.52Z" transform="translate(-14.3 -178.13)"/><path d="M516.74,295.69l3.32-.18V296l-3.34-.35Z" transform="translate(-14.3 -178.13)"/><path d="M691.76,195.65c-.16-.16-.47-.34-.45-.47a23,23,0,0,1,6.49-13c.1,1.35.14,2.11.21,2.86.31,3.24.93,6.28,3.37,8.8,1.32,1.36,2.77,3.26,2.88,5,.4,5.91,4.11,10.52,5.68,15.92l-3.06-4.12c0,3.42.09,6,1.53,8.37a11.56,11.56,0,0,1,1.48,4.18c.34,2.32.29,4.69.48,7a38.11,38.11,0,0,0,.68,5.45c.87,3.78,2.47,7.41,2,11.44a7.49,7.49,0,0,0,.59,2.34c.36-.41.61-.57.64-.75.6-4.37,0-9,2.77-12.92.26-.37.07-1.06.09-1.6l-.08.06,1.82-.49c2.58,1.95,2.69,2.21,2.53,6.52-.35-1.4-.53-2.15-.72-2.92-2.87,1-4.73,6.42-4.6,12.95,2.7.76,6.16-1.69,8.31,2.18,1.58,2.84,2,2.85,1.72,5.77-1.16-1.65-2.16-3.19-3.27-4.63-1.61-2.09-3.13-2.31-5.44-1.08-1.24.66-2.29,1.67-3.43,2.42s-1.66,3.27-1.26,4.66c1.15,3.95.53,7.79.12,11.67a5.47,5.47,0,0,0,.6,4,4.89,4.89,0,0,1,.41,3c-.37,3.41-.74,6.83-1.39,10.18-.35,1.83-.53,3.28,1,4.72a13.14,13.14,0,0,1,1.94,3.05c-.68,5.48-1.52,10.6-1.86,15.75-.14,2.11.78,4.29,1.25,6.43.07.32.27.8.51.87,3.09.89,1.45,2.61.77,4.18-1.37,3.18-2.78,6.35-4.08,9.57-1.58,3.93.06,7.72.64,11.55a9.43,9.43,0,0,1,.37,2.93c-.63,3.4-1.36,6.79-2.23,10.14-1.81,7-1.65,14-.78,21,.14,1.19.72,2.33.87,3.68-2.85-3.27-6.69-5.61-8.44-9.92-1.79,6.35,1.08,12.31.54,18.56a16.58,16.58,0,0,1-.89-3.16c-.44-5.4-.76-10.81-1.16-16.21a7.16,7.16,0,0,0-.54-2.68c-2.33-4.46-1.06-9.35-1.8-14a2.41,2.41,0,0,1,.74-1.83c1.85-1.65,1.87-3.91,2.16-6a21.11,21.11,0,0,0-2.41-13.37c-.38-.7-.64-1.48-1-2.42,4.56-6.44,3-13.34,1.12-20.26-1.18-4.29-1.49-8.44,1.92-12a4.45,4.45,0,0,0,1.31-3.42c0-2.89.41-5.84,0-8.66-.3-2.17-1.06-5.07-2.62-6.05a4.09,4.09,0,0,1-2.1-3.88c.25-1.85-.56-3.06-1.18-4.48-1.35-3.07-2.77-6.11-4-9.24a20.53,20.53,0,0,1-.7-4.05,3.31,3.31,0,0,0-4.25-2.78c-.11,0-.22.09-.33.12-6.07,2-6.14,2-6.6,8.33a57.26,57.26,0,0,0,.21,6.92,46.4,46.4,0,0,1,0,8.66c-.46-5.51-.92-11-1.38-16.57l-1.9.34c0-.28-.11-.52,0-.69.84-2,1.76-4,2.53-6.09a3.11,3.11,0,0,1,2.43-2.19l7.45-1.56c-1.45-3.39-2.31-4-5.68-3.89l-.34,0c-1.48,0-3.42.49-3.94-1.27-.41-1.4-.4-3.55.42-4.57,4.55-5.64,6.54-12.44,9.07-19a27.62,27.62,0,0,0,2.17-8.35c.12-2.69-.07-5.34.73-8a3.23,3.23,0,0,0-.44-2.64c-2.3-2.63-1.25-5.43-.73-8.23.14-.79.35-1.56.52-2.33l2.56-2.4c-.81,2.76-1.6,5.54-2.43,8.3-.37,1.24-.67,2.44.93,3.54.28-1,.49-1.72.71-2.48l.31.11c-.2,3.38-.4,6.76-.63,10.63l2.12-2.3c-2.42,7.47-4.69,14.25-6.79,21.09-1,3.38-1.55,6.93-3.94,9.78-1.31,1.56-2.46,3.26-4,5.4,5.46-.47,9.18,1.77,12.17,5.74,1.08-2.62,2.1-4.94,3-7.31a9.45,9.45,0,0,0,1-3.86,41.71,41.71,0,0,0-1.45-7c-.82-2.95-1.08-5.78.21-8.69,1-2.31,2.6-4.8,2.44-7.11a35.34,35.34,0,0,1,.82-9.92,6.87,6.87,0,0,0-.06-1.69c-.06-1.58-.61-3.34-.1-4.7,1.49-4,1.6-7.68-.55-11.55-.81-1.46-.55-3.5-.89-6.05A10.55,10.55,0,0,0,694.9,190a24.22,24.22,0,0,1-.75,3.28c-.25-.3-.49-.62-1-1.31C692.62,193.32,692.19,194.48,691.76,195.65Zm14.1,78.76c3.24-5.16,4.8-10.49,3.87-16.25a26.9,26.9,0,0,0-2.62-7.4c-1-2-3.12-2.27-4.15-.69a12.13,12.13,0,0,0-2.22,6.8c0,1.95-.23,3.92,1.7,5.24.23.16.3.58.39.89C703.82,266.72,704.81,270.44,705.86,274.41Z" transform="translate(-14.3 -178.13)"/><path d="M716.12,231.15q-1.08-4.41-2.14-8.83Q715,226.75,716.12,231.15Z" transform="translate(-14.3 -178.13)"/><path d="M702.39,393.87c1.93,1.18,1.88,2.53.54,4.19Z" transform="translate(-14.3 -178.13)"/><path d="M717.15,234.23c-2,.39-2.48-1.36-3.32-2.6l3.22,2.68Z" transform="translate(-14.3 -178.13)"/><path d="M711.82,224.89v2.55h-.36V225Z" transform="translate(-14.3 -178.13)"/><path d="M616.75,415.7c1.88-1.12,3.75-2.25,5.64-3.35A32.65,32.65,0,0,0,634,400.61a89.57,89.57,0,0,0,4.8-8A90.84,90.84,0,0,0,643,381.32c.53-1.69.26-3.62.34-5.45a4.65,4.65,0,0,1,0-1.35c2.06-5.4,1-11,1.05-16.52,0-3.79-.59-7.59.46-11.35a9.5,9.5,0,0,0,0-2.77c-.22-6.11-.48-12.22-.69-18.33-.22-6.7-.41-13.4-.61-20.11a12.51,12.51,0,0,1,.13-1.44l3,2.1.47-.36c-.17-.59-.31-1.2-.51-1.78l-2.35-6.78c-.26-.75-.47-1.52-.75-2.27-.2-.54-.8-1.16-.67-1.56,1.13-3.33-.82-6.16-1.38-9.2s-2.22-5.5-4-7.92c-3.24-4.42-6.63-8.74-9.61-13.34-1.68-2.6-4.12-4.21-6.39-6a26.2,26.2,0,0,1-6.87-7.79c-.3,2.08-.68,4.14-.88,6.22-.35,3.68-.65,7.37-.83,11.06-.08,1.7.25,3.42.26,5.14,0,7-.06,13.9.09,20.85,0,1.89.87,3.76,1.24,5.66.83,4.2,1.41,8.46,2.44,12.61,1.58,6.43,3.89,12.59,8.89,17.57-1.12,1.56-2.07,3-3.13,4.34-2.44,3.14-3.95,6.46-3,10.6.23,1-.33,2.17-.63,3.81-.36-2.61-.63-4.62-1-7.38-.94,1.24-1.51,1.86-1.93,2.56-4.3,7.09-6.87,14.92-9.54,22.69-.44,1.26-.23,2.74-.36,4.12-.19,1.92-.43,3.84-.64,5.76l-.78,0c-.52-3.84-.93-7.69-1.59-11.5a52.5,52.5,0,0,0-3-10.8l-.84.08v7.73l-.88.05c-.16-4.66-.16-9.35-2.09-13.81V352l-.51,0c-.37-3.29-.66-6.59-1.14-9.86a12,12,0,0,0-1.3-4.61c-1.81-2.87-3.87-5.76-8.49-3.4.35-1.37.45-2,.67-2.62,2.58-6.94,5.11-13.9,7.77-20.82a31.4,31.4,0,0,0,1.63-14c-.37-4.71-.39-9.47-.39-14.2,0-9.38.28-18.77.16-28.15a44.12,44.12,0,0,0-1.49-9.21c-.26-1.15-1.29-2.13-2.27-3.66-3.55,3.74-7.21,6.89-10.05,10.8-.73,1-.6,2.66-.8,4s-.27,2.43-.4,3.65l-.82.05c-.34-2.21-.7-4.42-1-6.63-.46-3.21-1.32-6.24-3.55-8.73s-4.36-4.8-6.44-7.28a26.17,26.17,0,0,1-2-3.16c1.56-1.77,3-3.2,4.21-4.82q6.81-9.22,13.46-18.57c1.78-2.52,3.33-5.2,5.26-8.25a19.92,19.92,0,0,0,1.22,1.8,70.24,70.24,0,0,0,17.43,15.26,27.57,27.57,0,0,1,2.65,2.22,8.87,8.87,0,0,0,2,1.38,25.51,25.51,0,0,1,7.33,4.25c2.12,1.84,5,2.77,7.52,4.2a14.29,14.29,0,0,1,2.73,2.12c3.27,3.09,6.49,6.24,9.74,9.36.41.39.9.71,1.66,1.31,4.39-4.16,8.84-8.29,11.64-13.61S657.71,220,660.24,214c.85,3.62,1.49,6.86,2.38,10,2,7,4,14,6.12,21a12.93,12.93,0,0,0,1.59,3.84c1.38,1.93,1.16,3.71.61,5.87a65.45,65.45,0,0,0-1.35,9.19,13.37,13.37,0,0,1-.64,4.14v-9.14l-.77-.16a26.73,26.73,0,0,0-1.4,3.66c-1,4.39-1.94,8.81-2.91,13.21a9.52,9.52,0,0,0,1.19,6.69,7.6,7.6,0,0,1,.43,6.69,10.05,10.05,0,0,0,.28,8.08,4.81,4.81,0,0,1,.05,4.28c-1.29,2.67-1.84,5.46-.67,8.38a2.88,2.88,0,0,1,.05,1.72c-.62,2.23-1.22,4.44-.5,6.78a1.19,1.19,0,0,1-.16,1c-1.88,1.95-1.13,4.36-1.17,6.6-.07,3.89-.09,7.78,0,11.67.11,3.56.68,7.12.6,10.67-.19,7.94.17,15.88-.26,23.8-.2,3.62-1.26,7.2-1.84,10.81-.47,3-.82,5.94-1.16,8.41-.13-1.81-.29-4.15-.45-6.49-3.24,2.95-2.59,6.72-2.95,10.94l-2-3.23c-2.43,3.26-2.23,7-2.92,11.09-.47-2-.82-3.52-1.23-5.27-2.26,2.19-4.36,4.29-6.54,6.3a24.21,24.21,0,0,1-4.21,3.46,88.34,88.34,0,0,1-19.82,8.16,17.35,17.35,0,0,1-3.7.26ZM607.58,343c2.24-1.23,2.5-3.25,2.21-5.5.6-.45,1.42-.77,1.75-1.37,1.52-2.72,2.89-5.51,4.51-8.64-6.87-9.71-6.83-21.07-6.89-32.48,0-11.05-.74-22.09-.65-33.14.06-7.6-1.32-15.18-.21-22.8.27-1.87-.37-2.46-2.37-2.57a54.35,54.35,0,0,0-5.85,0,6.47,6.47,0,0,0-2,.77c.39,2.68.92,5.05,1,7.44.13,3-.17,6-.13,9,.17,13.16.32,26.33.66,39.49a105.31,105.31,0,0,1-1.35,19.11,47.7,47.7,0,0,1-5.58,16c8.49,7.26,10.76,17.13,12.26,28,1-4.28,1.88-7.74,2.66-11.22A8,8,0,0,0,607.58,343Zm-.65-107.07c-.92-2.62-1.74-4.54-4-5.83v5.83Zm-4.8-5.23-.66-.24c-.79,1.84-2.87,3-2.77,5.49h3.43Z" transform="translate(-14.3 -178.13)"/><path d="M580.2,262.89c.1,1.51.19,3,.29,4.54-.69-1.47-2.33-2.75-1.16-4.57Z" transform="translate(-14.3 -178.13)"/><path d="M608.35,336c-.31.65-.87,1.29-.89,1.95-.06,1.68.12,3.37.21,5.05a26.78,26.78,0,0,1-.54-3.65c-.06-3,.06-6,0-9a24,24,0,0,0-.54-3.18c-2.15,2.62-1.45,5.46-3,7.88-.62-2.45-1.17-4.63-1.82-7.22l-4.92.54-.3-.53c.87-.55,1.7-1.17,2.62-1.64,1.53-.79,1.81-1.93,1.28-3.47a11.47,11.47,0,0,1-.82-4.68l3.65,3.29c.63-5.33.3-10.35.37-15.33s0-10.07.33-15.12v30.71c2.68-1.34,3.76-3.34,5.64-4.86-.89,2.34-1.78,4.68-2.72,7.17l4,3.3c-1.2.37-2.62.39-3.08,1.06a5.59,5.59,0,0,0-.35,3.32C607.67,333.1,608.07,334.57,608.35,336Z" transform="translate(-14.3 -178.13)"/><path d="M602.08,278.16c.67-1.53,1.29-3,2.09-4.76l2.3,4.19L604,281.13Z" transform="translate(-14.3 -178.13)"/><path d="M603.91,262.09V250.24h.17v11.84Z" transform="translate(-14.3 -178.13)"/><path d="M603,244v-3.72l.14,0,.24,3.59Z" transform="translate(-14.3 -178.13)"/><path d="M309.84,239.56a11.18,11.18,0,0,0-10.68-.7c-1.39.57-2.22,2.73-3.1,4.29-2.15,3.79-1.69,7.63,0,11.44h0c-.37,3.27-1,6.54-1.05,9.81-.09,4.84.62,9.71.27,14.52-.29,4,1.53,7.61,1.19,11.56a48.31,48.31,0,0,0,.19,7.6,25.41,25.41,0,0,0,.89,6.12,17.28,17.28,0,0,1,.67,7.16c-.14,1.57-1,3.16.46,4.61.22.21.05.89-.06,1.32-1.17,4.56-2.45,9.11-3.53,13.7a9.91,9.91,0,0,0,0,4.13,20.49,20.49,0,0,0,5.77,11.14c3,2.76,6.57,5.18,11.25,3.05,1-.45,2.46.1,3.68.34,1,.21,1.94.87,2.94.93a37.4,37.4,0,0,1,7.75,1c1.66.46,3.79-.57,5.64-1.15a2.23,2.23,0,0,0,1.49-3.05c-.26-1-.47-1.93-.86-3.56,3.74,2,7.23,3.42,10.28,5.52a68,68,0,0,1,12.3,11.08,6.24,6.24,0,0,1,1.85,5.62,22,22,0,0,1-3.08-2.21c-1.89-1.93-4.27-2.67-6.79-3.21-4.05-.87-8.08-1.82-12.13-2.69a5.35,5.35,0,0,0-1.59.07c-.48.05-1.18.37-1.39.16-1.73-1.67-3.82-1.35-5.9-1.24-1.32.08-2.82,1.17-3.83-.63-4.38,0-8.84-.49-13,1.32-3.28,1.43-6.54,2.95-9.68,4.68-6.35,3.49-8.71,9.07-8.53,16.18.13,4.79-.36,9.6-.57,14.4h-.84c0-1.31,0-2.62,0-3.93-.1-2.41-.29-4.81-.38-7.22-.06-1.46.12-2.95,0-4.4-.22-2.2-.3-2.19-2.54-3.57-2.21,4.11-2.24,8.58-2.06,13.08-.84-5,.06-10.38-2.55-15.3,3.16-2.88,2.57-6.82,1.65-10.64a6.23,6.23,0,0,1,.95-5.72,10.53,10.53,0,0,0,1.34-5.23c.21-3.69.16-7.41.11-11.11a9.85,9.85,0,0,0-.74-2.57c-.14-.43-.59-1-.44-1.24,1.82-2.6-.12-5.35.39-8.08.54-2.89,0-6,0-9s0-6,.17-9a15.16,15.16,0,0,1,.76-3,8.9,8.9,0,0,0,.47-2c.08-5.88.32-11.77.08-17.63s-1-11.73-1.58-17.58a52.65,52.65,0,0,1-.31-6.77,26.88,26.88,0,0,0-2.43-11.56c-.93-2.09-.65-4.74-.83-7.14a20.74,20.74,0,0,0-2.72-9.23c-.07,4.25-.62,8.48.42,12.72l-.69.06c-.2-1.2-.48-2.4-.59-3.61-.29-3.22-.52-6.44-.73-9.67-.1-1.41-.49-2.54-2.62-2.6,2.84-4.3,5.41-8.24,8.07-12.12.22-.32,1.07-.21,1.9-.35.14,3.78,3.07,5.66,5.18,8.1a2.38,2.38,0,0,0,1.19.66c5.77,1.43,11.5,3.11,18.08,3.6-1.81-5.29-3.8-9.85-8.73-12.91a10.7,10.7,0,0,0,3.07-9.49c-.64-3.57-1.24-7.13-5.79-8.54,5-4.81,7.73-10.59,10.68-16.48,2,1.54,4.86,2.2,6.36,4.93a5.42,5.42,0,0,1,1,3.72c-.27,2.34.46,4.78.58,7.19.09,1.94-.31,3.92-.11,5.85a17.81,17.81,0,0,0,1.41,5.69,44,44,0,0,0,3.74,5.66c-.41,4.56-.82,9.13-1.26,14.12a24.32,24.32,0,0,0,10,.24c5.74-1.13,11.35-.49,17.4.29-2.83,1.52-5.27,2.76-7.64,4.12a10.14,10.14,0,0,0-2.71,2.14,10.13,10.13,0,0,1-5,3.42,3.64,3.64,0,0,0-2.67,3.66,16.43,16.43,0,0,1-.43,4.14,8.89,8.89,0,0,1-.23-1.9c.31-3.75-2.07-5.72-4.91-7.22-.88-.46-2.16-.18-3.26-.24.52,1.62-1.69,1.61-1.73,3.28-.15,6.71-.43,13.41.81,20.07a15.5,15.5,0,0,1,.09,5.61c-.24-.89-.54-1.77-.72-2.67-.55-2.81-.54-5.85-1.68-8.4-2.25-5.06-3.27-10.44-4.83-15.67-.51-1.72-2.05-1.22-3-1.94Zm1.2-24.74V222l.51,0c-.19-2.38-.37-4.76-.56-7.14.23-3.38-.63-6.86,1.29-10.2l1,12.16c.93-6-1.38-12,.86-17.63l-4.82-8.07c-1.45,2.71-2.83,5.31-4,7.56.7,2.18,1.65,4.06,1.85,6,.22,2.12-.38,4.3-.39,6.46a29.54,29.54,0,0,0,.65,4.44l.25-.08.61-8.74a8.45,8.45,0,0,1,2,5.87C310.17,213.44,309.65,214.57,311,214.82ZM300.88,356.89c-5.17-1.52-7.95-5.44-10.69-9.52,1.47,4.61.65,8.94-.77,13.43C292.86,358.07,296.74,357.31,300.88,356.89Zm8.28-136.44h-.91l-.24,4.87.61,0Z" transform="translate(-14.3 -178.13)"/><path d="M329.83,266.91V254.84H330V267Z" transform="translate(-14.3 -178.13)"/><path d="M290.12,395.8l1.76,6.62-.85.21L289.44,396Z" transform="translate(-14.3 -178.13)"/><path d="M309.85,239.56v8.95h0v-8.95Z" transform="translate(-14.3 -178.13)"/><path d="M284.18,336.24v5.66h-.31v-5.79Z" transform="translate(-14.3 -178.13)"/><ellipse cx="269.81" cy="137.6" rx="0.18" ry="3.22"/><path d="M298.82,300.22v3.32l-.28,0v-3.17Z" transform="translate(-14.3 -178.13)"/><path d="M296.09,254.59l-.78-3.54.74-.08c0,1.2,0,2.41,0,3.62Z" transform="translate(-14.3 -178.13)"/><path d="M310.6,202.51c-3-1.89-3-1.89-3.6-3.27.64-1.27,1.31-2.59,2.13-4.19l3,4.28Z" transform="translate(-14.3 -178.13)"/><path d="M67.4,358.32l-5,4.53c11.16,1.34,20.88-1.84,30.77-5.11A6.34,6.34,0,0,0,93,360c.36,1.06.87,2.28,2.34,2,4.07-.77,7.4,1.17,10.89,2.69a27.11,27.11,0,0,0,5.58,1.8c2.67.52,3.52-.16,4.91-2.61a27.73,27.73,0,0,1,14.83-12.42c-3.6,3.38-5.34,7.4-4.68,12.23s3.08,8.29,8.48,9.4a5.62,5.62,0,0,1-4.34,2.75c-18.68,1.52-37.35,3.18-56,4.61-8.53.65-17.09.89-25.64,1.32l-.82,2.21c-1.36-1.73-3.1-1.86-5-1.73a55.94,55.94,0,0,1-8,.09c-2.11-.16-3.91,1.41-6.28.45-1.92-.78-4.34-.27-6.52-.48-1.87-.19-3.49-.09-4.29,1.95-.86,2.19-1.5,4.39,0,6.57a7.67,7.67,0,0,0,5.79,3.29c-1.47,2.29-3.3,2.89-5.54,2.24A6.49,6.49,0,0,1,14.33,391,9.06,9.06,0,0,1,17,383.69c1.52-1.56,3.17-3,4.71-4.47l-1.39-2.89c3.89,4.24,9,3.31,14,3.72,0-1.52.32-2.65,0-3.57-.87-2.53.59-4.13,1.93-5.83.86-1.09,1.76-2.14,2.65-3.21a6.93,6.93,0,0,0-3.36.33c-.42.12-1.06.4-1.26.22-2.14-2-4.74-1-7-.86-1.64.09-3.86,1-4.66,2.32-1.23,2-1.47,4.62-2.13,7-1.91-.15-1.12-1.64-1.32-2.64s-.45-1.76-.88-3.37c1.23-1.27,3.07-3.12,4.84-5,.77-.82,1.34-1.82,2.14-2.6a7.16,7.16,0,0,1,2-1.18c3-1.4,6.14-.49,9.18-.45A15.09,15.09,0,0,0,48,356.7a42.07,42.07,0,0,1,4.36-4,21.59,21.59,0,0,1,3.59-1.82c-6.24-2.61-8.8-8.21-6.61-15.39,4-13.23,11.54-23.9,23.88-30.7a19.85,19.85,0,0,1,6.94-2.15c-.33.35-.6.85-1,1-7.5,3.22-11.64,9.28-13.91,16.77-1.51,5-2.38,10.17-.93,15.4.61,2.21,1.43,4.37,4.23,5.38,0-5-1.09-10,2-14.23,2.71-3.8,4.67-8.33,10.15-10.11-1.94,2.1-1.63,5.3-4.85,6-.4.08-.83.87-.93,1.39a42.37,42.37,0,0,0-.78,5.82,4.72,4.72,0,0,0,1,2.43c.87,1.36,1.34-.33,2-.35,3.91-.16,6.72-2.64,9.74-4.63a35,35,0,0,0,4-3.32A4.42,4.42,0,0,0,92,322.62c1.55-4,3.3-7.94,2.9-12.45l.48,2.58c.4-.1.85-.08,1-.28,2.39-3.25,4.74-6.54,7.1-9.82,1.91-2.65,1.68-10.9-.38-13.61,5.93-6.86,5.58-13.6-1.15-15.83,2.13-2.84,5.16-4.39,7.6-6.9A37.68,37.68,0,0,0,111,271c2.29,4.83,8.84,7.38,14.29,5.53s8.86-5.42,9.75-11.14c.47-3,1.3-6.16-1.16-9.19l12.2-8.29.33.3c-1.61,2.44-3.2,4.91-4.86,7.32-1.05,1.54-1.45,2.9-.38,4.76a77,77,0,0,1,3.41,7.57c1.46,3.3,1.45,6.77,1,10.24-.22,1.92-.41,3.88-2.33,5.16-.68.46-.87,1.6-1.38,2.36-1.26,1.86-2.13,4.09-5,4.31-.91.07-1.73,1.09-2.61,1.64a5.09,5.09,0,0,1-2.84,1l1.78-2.07a23.68,23.68,0,0,0-11.59,5.14,3.92,3.92,0,0,0-.77.69,29.73,29.73,0,0,0-5.35,16.33l2.09-.15c-.2.35-.28.72-.5.82a3.49,3.49,0,0,0-2.06,4c.52,3.61,1.05,7.21,1.58,10.84-1.65-1.47-3.13-3-3-5.76a30.2,30.2,0,0,0-.77-5.64,11.63,11.63,0,0,0-1.61.74c-1.06.7-2.08,1.47-3.12,2.2C105,321.9,98.28,328.9,96,332.05s-5,6.1-7.34,9.23c-2.61,3.44-6.53,4.52-10.3,5.79-.82.28-2-.55-3.34-1-.75,2.2,0,4.36.4,6.76-2.25,1.71-4.32,3.91-7.3,4.79,1-2.59.1-5-.26-7.67-2,1.21-2.25,1.26-2,2.87.31,1.83-1.35,4.15,1.23,5.45A.76.76,0,0,0,67.4,358.32ZM46.15,373.76l2.2-2.34c-1.9-3.16-4.16-3.69-6.57-1.68-2.23,1.84-3,4.55-3.84,7.15-.37,1.15.57,1.27,1.46,1.17l-.77,1.52,7.88-.29C45.82,377.14,47.73,375.45,46.15,373.76Zm37.61,0c-.87-.45-1.9-1.43-2.57-1.22a5.33,5.33,0,0,1-4.52-.82,5.89,5.89,0,0,0-2.34-.58c-5.37-.41-10.74-.78-16.11-1.16l0,.52,4.55.43a16.86,16.86,0,0,1-4.86.45c-6.11,0-6.41-1.27-8.45,6.74,0,.18.11.42.27.95,3.25-.22,6.57-.47,9.89-.66,10.16-.58,20.33-1.12,30.49-1.73,1.53-.09,3-.47,4.55-.71v-.71c-.72-.13-1.44-.29-2.16-.39q-4.38-.62-8.75-1.18l3.12,0,0-.47ZM106,319.68c-.15-2.14-.28-4.08-.43-6a4.68,4.68,0,0,0-.3-.92c-3.41,3-5.28,7-4.62,10.09Zm4-3.1c1.45,0,2.52-.53,2.46-2.13-.13-3.26-.4-6.52-.62-9.94C109.44,306.52,109.11,308.89,110,316.58Zm-.54-22.81.76.22c.35-1.11,1.06-2.24,1-3.3-.18-2.15.68-4.61-1.36-6.44C108.32,286.42,108.24,289.11,109.41,293.77Zm4.76-6,.62.25,3.71-4.21-4.27-.83ZM59.4,363.15c-.13-1.85-.22-3.17-.33-4.66-2,.54-3.59.86-4.19,2.79Z" transform="translate(-14.3 -178.13)"/><path d="M109.28,181.56a15,15,0,0,0-3.82,10.37c0,5.26,5.33,10.63,10.64,10,4.57-.58,8.93-1.39,11.85-5.43a6.31,6.31,0,0,0,1.24-2.41c.33-2,.42-4.09-1.28-5.46-1.54-1.24-3.44-1.11-5.27-.35a10.82,10.82,0,0,1-1.63.42l.07.07A11.41,11.41,0,0,1,134.83,186a16.48,16.48,0,0,1,6.73,6.81,7.37,7.37,0,0,1,.76,3.68c-.12,3-.48,6-.72,8.78,2,2.2,4.11,4.18,5.82,6.47a11.48,11.48,0,0,1-1,15.17,66.76,66.76,0,0,1-5.08,4.72c-1.38,1.19-3,2-3,4.31,0,.66-1.1,1.39-1.81,1.95a72.37,72.37,0,0,0-15.09,16.67,38.16,38.16,0,0,0-6.15,14.61,17.7,17.7,0,0,1-.54,1.85L114,271a12.12,12.12,0,0,1-.07-3.06,40.15,40.15,0,0,0,.43-14.82,18.29,18.29,0,0,1,.23-3.28c.16-2.5.75-5-1.15-7.25-1.36-1.61-3-2.34-4.87-1.8-7.6,2.15-14.34-.65-21.07-3.52-2.18-.92-4.32-1.94-7.06-3.17l2.35,3.19c-1-.5-1.45-.61-1.7-.91-2.77-3.3-6.53-4.45-10.59-5.08-3.2-.5-6.37-1.17-9.54-1.82-1.83-.37-3.62-.74-5.44.12a2.41,2.41,0,0,1-1.69.13c-2.05-.78-3.83,0-5.66.72a24.5,24.5,0,0,1-3,.81c-3.11,6-3,17.25.43,25.08a27.92,27.92,0,0,0-6,14.44,45.06,45.06,0,0,0-.34,6.57c0,1.87-.72,3-2.85,3.86.28-8.52-2.28-15.9-7-22.82,5.07-7.71,7.84-15.9,3.75-25.4,4.35-3.82,8-8.58,8-14.79s-2.59-11.14-8.43-14c2.46-3.37,5-3.84,8-1.12A57.93,57.93,0,0,1,47,210a7.76,7.76,0,0,0,7.21,3.18c8.9-.5,17.8-.83,26.71-1.22q19.42-.87,38.86-1.74c3-.13,6-.32,9-.63a23.28,23.28,0,0,0,3.79-1l-.06-.75-4.07-.7c1.67-1.66,3.46-1.53,5.1-1.64,1.47-.11,2.43-.67,2.75-2.13a16.76,16.76,0,0,0-3-13.78c-.16-.22-.59-.25-.92-.37-1.35,7.88-8.45,13.78-17.25,15a10.74,10.74,0,0,1-11.6-6.82c-2.36-5.58.29-12.76,5.84-15.71ZM50.67,219c1.48-.26,2.58-.5,3.7-.65a19.26,19.26,0,0,1,4.75-.42c4.24.55,8.45,1.35,12.66,2.11.88.16,2.46.63,2.45.92,0,1.91,1.57,1.78,2.52,2.15,5.37,2.1,10.8,4,16.22,6a17.23,17.23,0,0,0,2,.61c3.45.87,6.88,1.8,10.37,2.49a5.2,5.2,0,0,0,2.89-.72c1-.44,1.8-1.25,2.77-1.75,3.9-2,6.16-6.43,5.26-10.37-1-4.26-3.54-6.1-8.77-6.1-4.17,0-8.34.17-12.5.29-9.84.29-19.68.57-29.51.9-3.36.12-6.71.29-10.06.58C53.29,215.28,51.25,215.8,50.67,219Zm78.67,12.55a16.32,16.32,0,0,0,9.75-6,9.78,9.78,0,0,0-1.4-14.21c-1.6,1.78-3.07,3.7-4.83,5.32C128.35,220.8,128.74,225.93,129.34,231.55ZM40.49,258.33c-1-2.66-1.92-5.19-3-8-1.33,2.26-2.52,4.26-3.69,6.23,1.28,2.22,2.52,4.35,3.88,6.72Zm77.73-28.4-3.83,4,2.21,3.72,3.42-3.89Zm1.85-6.76,2.68,2.83,2.93-2.63c-.66-1.37-1.22-2.55-1.82-3.81Z" transform="translate(-14.3 -178.13)"/><path d="M123.16,269a10.42,10.42,0,0,1,2-9.07,3.71,3.71,0,0,1,4.57-1.34c1.64.64,2.1,1.9,2.1,3.59C131.86,267.3,128.26,270.21,123.16,269Z" transform="translate(-14.3 -178.13)"/><path d="M109.35,181.62c1.21-2.09,3.35-2.75,5.43-3.49a10.6,10.6,0,0,1-5.5,3.43Z" transform="translate(-14.3 -178.13)"/><path d="M22.09,364.58,20,366.63l-.72-.74c.76-.45,1.51-.91,2.28-1.34C21.68,364.49,21.87,364.56,22.09,364.58Z" transform="translate(-14.3 -178.13)"/><path d="M121,188.66c-.13,1.51-1.09,2.29-2.94,3.31.93-1.84,1.52-2.95,3-3.24Z" transform="translate(-14.3 -178.13)"/><path d="M42.9,375.87c-.51,1.87-2.32,1.7-3.64,2.3Z" transform="translate(-14.3 -178.13)"/><path d="M104.42,229.6l-4-1,.12-.55,4.05,1Z" transform="translate(-14.3 -178.13)"/></svg>