<?xml version="1.0" encoding="utf-8"?>
<!-- Generator: Adobe Illustrator 23.0.0, SVG Export Plug-In . SVG Version: 6.00 Build 0)  -->
<svg version="1.1" xmlns="http://www.w3.org/2000/svg" xmlns:xlink="http://www.w3.org/1999/xlink" x="0px" y="0px"
	 viewBox="0 0 850.4 283.5" style="enable-background:new 0 0 850.4 283.5;" xml:space="preserve">
<style >

	.st3{fill:#FFFFFF;}
</style>

<g class='st3'>
	<g>
		<path d="M247.4,165.4c0-3.1,0-6.2,0-9.6c-2.6,0-4.8,0-7.6,0c0.1,1.5,0.2,3,0.4,4.9c-0.3,0.6-0.9,1.6-1.6,2.8
			c-0.7-1.1-1.4-2.1-1.9-2.9c0.5-1.6,0.9-3,1.5-4.8c-2.5,0-4.5,0-6.5,0c0-0.1,0-0.3,0-0.4c2-0.1,4-0.2,6.5-0.3
			c-0.2-5.2-0.4-10.1-0.6-15.2c0.6-0.4,1.2-0.9,1.8-1.3c0.2,5.3,0.4,10.6,0.6,16c2.2,1.2,4.5,0.7,6.7,0.4c0.5-0.1,1.2-0.9,1.2-1.4
			c0-1.7,0.6-3.4-0.6-5c-0.5-0.7-0.6-1.9-0.6-2.9c0-1.6,0.2-3.2,0.2-4.9c-0.3-6.1-0.6-12.2-1.1-18.3c-0.5-6.5-1.3-12.9-1.9-19.3
			c-0.3-3.3-3.5-7.1-6.9-7.7c-2.3-0.4-4.6-0.6-6.9-0.9c-0.5-0.1-1-0.2-1.4,0c-4.5,1.6-9.2,0.3-13.7,0.7c-4,0.4-8.1,0.7-12,1.5
			c-4.9,1-8.9,3.7-12.6,7c-2.4,2.2-2.7,4.9-2.7,7.9c0,1.2,0.1,2.4,0,3.6c-0.3,3.2-0.8,6.4-0.9,9.7c-0.3,6.6-0.3,13.2-0.6,19.8
			c-0.2,4-0.7,8-1.1,12.2c1.2,0.3,2.1,0.4,3.2,0.7c-1,0.1-1.8,0.2-2.6,0.2c-0.1,0.4-0.4,0.8-0.3,1.1c0.6,5-0.8,9.4-3.5,13.7
			c-2.3,3.6-2,3.8-1.9,7.8c0,0.6,0.1,1.2,0,1.7c-0.1,0.9-0.2,1.8-0.7,2.8c-0.3-2.5-0.8-5-0.8-7.4c0-6.7-0.2-13.4,0.5-20
			c1.2-12.2,0.5-24.5,1-36.7c0.2-3.7-0.1-7.4-0.1-11c0-7.1-2.9-13.7-3-21c-3.4-0.9-6.5-2.5-10.2-2.4c-2.3,0.1-4.6-0.6-6.9-0.6
			c-3.2,0-6.4,0.3-9.6,0.6c-0.4,0-0.8,0.6-1.4,1.1c-2.6-2.1-5.2-4.3-7.9-6.5c3.7-1.9,7.3-1.7,11-1.7c2.2,0,4.4-0.5,6.5-0.4
			c3.7,0.2,7.3,0.7,10.9,1.1c2.8,0.4,5.6,1.4,8.5,0.2c1.1-0.4,2.5-0.2,3.8-0.2c5.9-0.1,11.8-0.3,17.7-0.4c0.4,0,0.9-0.2,1.3-0.8
			c-1.8,0-3.6-0.1-5.4-0.1c-2.1,0-4.2,0-6.3,0c-1.9,0-3.9,0-5.8-0.5c0.8,0,1.6,0,2.4,0c10.9,0,21.8-0.2,32.7-0.1
			c4.4,0.1,8.4-1.2,12.5-2.2c0.3-0.1,0.7-0.2,0.9-0.5c1.6-2.9,4.4-2.8,7.2-2.9c3-0.1,6,0,9-0.1c2.3-0.1,4.6-0.4,6.9-0.6
			c1-0.1,2.3-0.5,2.8-0.1c0.8,0.9,1.3,2.2,1.6,3.5c0.4,1.6,0.4,3.2,0.7,4.8c0.3,1.8,1.1,3.5-0.8,5.1c-0.5,0.4-0.6,1.7-0.5,2.6
			c0,3,0,6,0.3,9c0.7,7.5,1.7,15,2.2,22.5c0.4,6.1,0.1,12.3,0.2,18.4c0,2.3,0.1,4.6,0.5,6.9c0.4,2.8,0.4,5.4-0.5,8.2
			c-0.9,2.9-1.6,6-0.7,9.2c0.5,1.6,0.2,3.5,0.2,5.2c0.1,4.5,0,9,0.4,13.5c0.4,4.4,0.2,8.8-0.1,13.2c-0.3,3.8,0.2,7.4,2.8,10.4
			c0.7,0.8,1.6,1.3,2.8,2.3c-0.2,0.3-0.5,1.3-1.1,1.8c-3.4,3-6,6.6-7.8,10.8c-1.2,2.7-2.3,5.3-2,8.6c0.3,3.7-0.6,7.5-1.2,11.4
			c-0.3-1.5-0.7-2.9-0.8-4.4c-0.3-5.9-1.3-11.7-3-17.4c-0.2-0.6-0.6-1.1-1.3-1.5c0.3,1.5,0.7,3.1,1,4.6c-0.1,0-0.3,0.1-0.4,0.1
			c-1.3-2.1-2.7-4.2-4-6.3c-0.9-1.5-2.1-2.6-3.8-3.4c-1.5-0.7-2.7-2-4.4-3.4c2.5-2.3,4.7-4.4,6.9-6.4c2.6-2.3,3.4-5.9,2-8.8
			c0.5-1.2,1-2.3,1.4-3.4c0.1-0.3,0-0.7,0-1c0.2-8.3,0.3-16.6,0.5-24.9c0-0.8,0-1.6-0.4-2.4c-0.1,1.7-0.2,3.3-0.3,5
			C247.9,165.3,247.7,165.3,247.4,165.4z"/>
		<path d="M208.2,144.7c0.8,0.1,1.4,0.1,2.3,0.2c-0.7,0.3-1.1,0.5-1.5,0.7c0.6,3.6,2.1,6.1,4.4,7.4c0.9-1.9,1.9-3.8,2.5-5.8
			c0.6-1.9,2.1-2.6,3.5-3.5c1.5-0.9,3.1-0.5,4.2,0.6c4,4.1,7.3,8.7,6.6,15c-0.2,2.1-2,3.9-4,3.5c-1.9-0.3-3.7-1.1-5.6-1.3
			c-1.7-0.1-2.3-1-3.1-2.6c3.4,0,6.7,2.5,9.6-0.6c0.6-4.3-1.4-9.8-4.8-12.7c-0.2,0.7-0.5,1.3-0.6,1.9c-0.5,1.9-0.7,3.9-1.4,5.7
			c-0.6,1.6-1.6,3.2-3.9,2c-0.5-0.3-1.5,0.4-2.8,0.8c-0.8-0.5-2.3-1.4-3.7-2.3c-4.4-3-4.3-7.8-5.1-12.2c-0.5-2.5,0-4.6,1.9-6.4
			c2.2-2.1,2.8-2.2,5.1-0.1c0.3,0.3,0.7,0.6,1.4,1.2c-1.3,1.2-2.6,2.3-4,3.5C207.1,141.4,207.1,141.4,208.2,144.7z"/>
		<path d="M194.3,143c0.9-1,1.7-1.8,2.6-2.8c0.8,1.1,1.6,2.1,2.4,3.2c-3.4,4.1-0.9,8.7-1.8,13.1c1.4,0.2,2.4,0.3,3.5,0.4
			c-1.1,0.1-2.1,0.2-3,0.3c-0.9,1.5,0.3,3.8-2.1,4.6c0-1.4,0-2.8,0-4.3c-0.6-0.2-1.3-0.4-1.5-0.5c0.4-0.4,1.4-0.8,1.4-1.3
			c0-3.7-0.2-7.4-0.4-11C195.3,144.1,194.8,143.6,194.3,143z"/>
	</g>
	<g>
		<path d="M743.3,141.3c-0.6-0.7-1.2-1.4-1.9-2.3c-0.4,0.2-1,0.2-1.1,0.5c-0.4,1.1-1.1,1.3-2.3,1.2c-2.2-0.2-4.5,0-7,0
			c1.7-1.3,3.4-2.6,5.3-4.2c-1.2-0.7-1.9-1.2-2.8-1.7c1.9-0.6,3.7-1.1,5.4-1.9c2.7-1.2,5-2.9,5.1-5.9c0.2-3.8,0.1-7.7,0-11.5
			c0-4.1,0-8.3-0.3-12.4c-0.1-2.4-0.8-4.8-1.2-7.2c-0.7-4.4-1.2-8.9-1.9-13.3c-0.5-3.1-2.2-5.9-4.6-8.1c-3.4-3.1-7.2-2.7-11.2-0.8
			c-0.2,0.1-0.4,0.2-0.8,0.4c-0.6-2.1,0.2-3.9,1.5-5.3c2.6-2.8,5.5-5.3,8.2-8c1.9-1.9,3.7-3.8,5.8-5.9c1.6,4.8,5.3,6.9,9.8,8.1
			c0.6,0.2,1.3,0.5,1.8,0.9c2.5,2.4,5.9,2.3,9.1,2.5c0.9,0,1.8-0.6,2.7-1.5c-1-0.2-2.1-0.3-3.1-0.5c-0.1-0.2-0.3-0.3-0.4-0.5
			c0.3-0.1,0.6-0.2,0.9-0.2c11,0.6,21.9,1.2,32.9,1.8c0.6,0,1.2,0,1.7,0.2c3.9,1.1,6.8-0.4,9-3.2c1.6-2.2,3-4.5,4.7-7.1
			c2.1,4.3,3.4,8.6,7.8,11.5c3.9,2.5,6.7,6.4,11.6,8c-3.6,0.6-7.1,1.2-10.7,1.8c-2.2,0.3-4.5,0.4-4.9,3.1c0,0.3-0.3,0.6-0.6,0.8
			c-3.4,2.3-5.7,5.5-7.6,8.8c-1.2,2-1.7,4.4-2.3,6.6c-0.6,2.3-1,4.6-1.8,6.9c-0.6-2.9-0.4-5.8,0.1-8.7c0.6-3.3,1-6.6-0.9-9.7
			c-0.4-0.7-1.1-1.7-1.7-1.8c-2.2-0.3-3.5-1.9-5.2-2.8c-1.5-0.7-3.3-1.5-4.9-1.3c-2.7,0.3-5.3-0.3-7.9-0.6
			c-5.4-0.6-10.8-0.4-16.2,0.7c-0.8,0.2-1.6,0.4-2.4,0.4c-4.5,0-6.8,3.1-7.2,6.2c-0.4,3.3-0.5,6.6-0.2,9.9c0.3,3.4,0.6,6.8,0.2,10.2
			c-0.6,6.7,0.6,13.2,2.3,19.6c0.6,2.3,2.9,4.5,5.9,5.2c3.8,0.9,7.6,0.8,11.4,0.3c0.7-0.1,1.4-0.2,2-0.4c2.1-0.6,3.6-2.6,6.2-1.9
			c2.2,0.5,4.5,0.5,6.7,1.1c4,1.2,7.8,1.4,11.8,0.4c1.6-0.4,3.3-0.3,5-0.3c-1.9,1.8-3.6,3.8-6.6,3.9c-3.8,0.1-7.6,0-11.4,0.1
			c-3.2,0.1-6.4,0-8.8,2.5c0.4,1.9,1.8,2.8,3.4,3.5c5,2,9.9,4.1,15.6,3.6c0.9-0.1,2-0.1,2.7,0.2c2.9,1.5,4.8-0.1,6.7-1.6
			c2-1.6,2.1-3.9,1.4-6.1c-0.1-0.4-0.4-1-0.2-1.1c2.3-1.8,1.1-4.1,0.9-6.2c0-0.1,0.1-0.2,0.4-0.6c0.4,0.7,1,1.3,1.1,1.9
			c0.6,3.1,1.1,6.3,1.6,9.4c0.7,4.1-3.4,8-6.4,9c-2.6,0.9-5.1,1.5-8.1,1c-4.3-0.8-8.7-0.9-13-1.3c-1.3-0.2-2.8-0.5-3.9-1.1
			c-2.4-1.3-5.2-2.1-7.4-4c-1.4-1.2-3.5-0.9-5.3-0.4c-1.2,0.3-2.4,0.5-3.8,0.7c-0.1,2.1-2.6,0.8-3.4,1.5c0.1,5.9,0.3,11.6,0.4,17.5
			c1-0.2,1.6-0.3,2.5-0.5c0.1,1.5,0.1,2.9,0.2,4.2c0.1,0.5,0.5,1,0.7,1.5l0,0c0,4.2,0,8.4,0,12.6c0.1,0,0.3,0.1,0.4,0.1
			c0.5-1.3,1.1-2.6,1.8-4.4c-0.6,4.5-1,8.6-1.6,12.6c-0.3,2.1,0.6,3.5,2.3,4.7c0.3,0.2,0.7,0.3,0.9,0.5c2.9,4.6,8.2,3,12.4,3.9
			c6.1-1.5,12.4-0.3,18.5-1.7c1.9-0.4,3.8-0.9,5.7-1.4c5-1.5,7.9-4.5,8.2-9.5c0.1-1.1,0.1-2.1,0.2-3.4c0.6,0.1,1.2,0.2,1.5,0.3
			c0.1,3.7-0.5,7.3,0.4,10.6c1.3,4.6,3.1,9.1,6.6,12.9c-0.8,1.1-1.9,1.1-3.2,0.6c-1.6-0.6-3.3-1-4.9-1.6c-1.8-0.7-3.2,0.2-4.5,0.9
			c-0.8,0.4-0.9,2-1.1,3.2c-0.4,3.6-0.8,7.2-1.3,10.7c0-4.5,0-9.1,0-14c-1.4,1.4-1.4,1.4-1.9,4.5c0-1.6,0-3.2,0-4.9
			c-1-0.2-1.8-0.4-2.5-0.4c-4.5,0-9-0.1-13.5,0c-3.4,0.1-6.5,1.2-9.4,2.9c-7,4.2-11.2,10.3-14.7,17c-0.8,1.5-1.7,3-2.4,4.6
			c-1.1,2.4-2.1,4.9-3.3,7.7c-1.8-2-3.7-4-5.5-6c-0.3,0.1-0.6,0.3-0.9,0.4c-0.1,1.5-0.2,2.9-0.3,4.4c-0.9-4-0.7-8.4-5-11.3
			c-0.1,0.6-0.3,1.2-0.3,1.9c0.2,3.9,0.5,7.9,0.7,11.8c0.1,1.4-0.2,2.8-0.3,4.3c-0.3,0-0.5,0-0.8,0c-0.1-0.6-0.3-1.3-0.3-1.9
			c0.3-5.3-0.1-10.6-1.2-15.9c-0.4-1.9-1-3.9-1-5.8c0-1.2-0.2-2.6,1.3-3.7c1.2-0.9,1.8-2.4,2.7-3.6c1.9-2.4,2-5.1,2-8.1
			c0.3,0.5,0.6,1,1.1,2c1.6-3.9,1.2-7.4,0.1-11.1c-0.4,0.9-0.7,1.8-1.1,2.7c-0.1-12.3-0.3-24.5-1.8-36.6c-0.1,2.2-0.2,4.4-0.3,6.7
			c-0.1,0-0.1,0-0.2,0c0-1.5,0-3.1,0-4.8c-1.8-0.1-2.1-2.9-4.7-1.6c-2.9-5.4-4.1-10.7-0.1-16.2c-0.1,0.9,0.5,1.3,1.1,0.7
			c0.5-0.5,0.7-1.5,0.7-2.2c0-0.9-0.3-1.1-2.2-1.8C743,140.6,743.2,140.9,743.3,141.3z"/>
		<path d="M764.5,167c2-0.6,2.2-2,1.5-3.5c-0.8-1.6-0.8-3,0.3-4.6c0.7,0.8,1.4,1.5,1.8,2.1c-0.6,2-1.1,3.8-1.7,5.9
			C766,166.8,765.3,166.9,764.5,167C764.5,167,764.5,167,764.5,167z"/>
	</g>
	<g>
		<path d="M468.9,76.2c-1,7-0.5,14.1-0.5,21.2c0,3,0.4,6.1-1.7,8.8c1.9,2.1,4.2,0.8,6.5,1.3c-1.7,3.4-2.1,7.1-4.2,10.4
			c-1.4,2.1-1.3,5.3-1.9,8.1c1,0.6,1.7,1,2.4,1.3c0,0.5,0.1,0.8,0,1.2c-0.4,2-1,4-1.4,6.1c-0.3,1.6-1,3.1-1.6,4.6
			c-1.2,3-2.6,6.2-1.4,9.9c0.9,2.8,0.6,6.1,2.9,8.4c0.2,0.2,0.2,0.7,0.3,1.1c1.2,5.4,2.5,10.9,3.7,16.3c1.1,5.3,0,10.2-2.3,14.9
			c-0.5,1-0.8,2.4-0.5,3.4c1.9,6.4,1,12.6-1,18.8c-0.2,0.7-0.4,1.5-0.8,2c-1.3,1.9-2.8,3.7-4.4,5.9c-0.4-0.7-1.4-1.6-1.3-2.4
			c0.1-2.3-1-4.4-0.5-6.8c0.4-1.9-0.4-4.2-1-6.1c-0.9-2.4-1.1-4.7-0.3-7.1c0.2-0.5,0.2-1.2,0.3-2.4c-0.9,0.8-1.3,1.3-2,1.9
			c-0.4-2-0.6-3.7,0.1-5.5c1.7-4.2,0.3-8-1.5-11.6c-1.7-3.5-3-6.9-3.3-11c-0.2-3.4,0-6.3,1.3-9.6c1.2-2.9,1.2-6.4,1.6-9.7
			c0.4-3.3,0.6-6.6,1.2-9.9c0.4-2-0.6-3.3-1.5-4.7c-1.2-1.8-2.6-3.5-2.4-6.2c0.6,0.1,1.1,0.1,1.9,0.2c2.1-3.5,3.3-7.6,2.8-12.2
			c-0.4-3.3-1-6.5-1.3-9.8c-0.2-2.1,0-4.2,0.3-6.3c0.6-5,0.3-9.8-2.3-14.4c0.6-0.3,1.1-0.6,1.6-0.9c0-4.3-2-7.7-4.1-11.1
			c0.5-0.2,1-0.4,1.8-0.6c0.8,1.7,1.9,3.3,2.5,5.2c0.6,1.8,0.8,3.8,1.2,5.7c3.3-4.1,3.9-8.5,3-13.3c-0.3-1.4-0.8-2.7-1.2-4
			c-1-3.2-1.3-6.8-4.1-9c0-0.7,0-1.5,0.1-2.2c0.6-3.2,0.1-5.4-1.8-8.5c-0.4-0.6-0.3-1.6-0.5-2.8c2.8,1.2,3.1,4.1,4.8,6
			c0.8,0,1.6-0.1,2.5-0.2c0.3,1.2,0.6,2.5,1,3.7c0.3,0.8,1.1,1.4,1.3,2.2c1.1,4.2,1.9,8.5,3.2,12.6
			C466.8,71.8,466.6,74.7,468.9,76.2z M466.3,186.2c0.5-1.4,1.2-2.6,1.3-3.8c0.2-1.7,0-3.4-0.2-5.1c-0.1-0.9-0.4-1.8-0.8-2.7
			c-0.6-1.5-1.3-3-2-4.5c-0.7-1.4-2.6-1.7-3.4-0.3c-0.5,0.9-0.5,2.2-0.5,3.3c0,0.7,0.6,1.4,0.5,2c-0.2,2.3,0.5,3.9,2.3,4.9
			C462.4,185.4,463.1,185,466.3,186.2z"/>
		<path d="M455.6,58.6c0,1.2,0.2,2.5-0.2,3.5c-1.3,3.1-3,6.1-4.6,9.3c0.4,0.9,0.8,1.9,1.3,3c-0.9-0.9-1.9-1.8-3-2.9
			C451.3,67.3,453.5,63,455.6,58.6z"/>
		<path d="M467.4,58.2c-2.8-0.6-2.9-3-3.2-5.3c-0.2-1.8-0.3-3.6-0.6-5.3c0-0.2-0.7-0.3-1.1-0.5c0.2-1,0.4-1.9,0.7-2.9
			c0.2,0,0.4,0,0.6,0.1c0.3,1.4,0.7,2.8,0.9,4.2c0.5,2.7,0.9,5.5,2.5,7.8C467.5,56.7,467.4,57.6,467.4,58.2z"/>
		<path d="M470.2,64.8c-1.3-1.3-2.1-2.8-2.2-4.7C469.4,61.3,470.1,62.9,470.2,64.8z"/>
	</g>
	<g>
		<path d="M389.3,174.5c0.4-1.4,1-2.7,1.1-4.1c0.2-2.2,0.1-4.4,0.3-6.6c0,0.9,0.1,1.7,0.1,2.6c0.1,2.2,1.5,2.1,3.4,1.7
			c-1.4-3.4-1.2-6.7-0.5-10.1c0.3-1.3-0.6-2.6-2.8-2c-0.1,1.3-0.2,2.6-0.3,3.9c0.5-4.8-3-10.2,2.1-13.5c-1.5-2.2-2.6-4-4.1-6.3
			c0.1,4.7,0.4,8.9-2.4,12.7c-2.3-2.2-4.9-4.5-7.6-7c-3.4,4.7-0.6,9.7-2.6,14.1c0.2-3.3,0.4-6.6,0.6-9.9c-2.1-0.1-2.1,1.3-2.3,2.2
			c-0.8,2.9-0.4,6.1-2.1,8.8c-0.1,0.2-0.1,0.5-0.1,0.7c0.6,3.5,1.2,6.9,1.7,10.4c0.1,1,0,2.1-0.1,3.2c-0.1,1.1-0.6,2.4-0.1,3.2
			c1.9,3.7,0.1,7.3-0.2,11c-0.2,2.9-1,5.8-1.7,8.6c-0.9,3.7-0.4,7.2,1.1,10.7c0.9,2.1,1.7,4.5,0.8,7.2c-0.6-0.2-1-0.3-1.2-0.5
			c-2-2.8-4.5-5.5-5.9-8.6c-1.7-3.8-2.9-7.8-3.7-11.9c-0.5-2.6,0.1-5.4,0.1-8c0-1.3-0.4-2.6-0.4-3.9c0-0.9,0.2-1.9,0.5-2.8
			c1.3-4.2,2.7-8.3,4-12.5c0.3-0.9,0.3-1.9,0.3-2.9c-0.1-5.1-0.4-10.2-1.2-15.3c-0.8-4.7-1.1-9.6-0.3-14.3
			c1.3-7.1-0.5-13.5-3.9-19.4c-3.1-5.5-2.4-10.6-0.4-15.9c1.1-2.9,2.5-5.9,4.4-8.6c2.5-3.5,3-7.5,2.7-11.6c-0.1-0.7-0.3-1.5-0.6-2.1
			c-4-6.7-5.6-12.7-6.3-19.9c-0.3-3,0.3-5.4,1.2-8.1c0.3-1,0.2-2.1,0.3-3.2c0-0.2-0.2-0.5-0.2-0.7c0-1.1-0.4-2.5,0.2-3.2
			c2.5-3.4,0-7.7,2.5-11.2c1.5-2.1,1.9-5.1,5-5.7c-0.9,3.4-1.9,6.9-2.7,10.4c-0.4,1.7-0.2,3.4-0.4,5.1c-0.2,1.6-0.3,3.2-0.8,4.6
			c-1,3.1-1.2,6.3-0.5,9.4c1.1,4.8,2.6,9.3,5.1,13.7c2.8,5,4.1,10.7,4.2,16.6c0.1,3.9,0.4,7.8,0.7,11.6c-0.6-1.4-1.1-2.8-1.9-4.7
			c-0.4,5.8-0.5,11.1,0.7,16.4c0.2,1,0.7,2.1,2.3,2c-0.4,1.8,0.5,3.1,2.1,5c0.5-1.5,0.9-2.4,1-3.3c0.1-1.1-0.1-2.1-0.1-3.2
			c1.6,1.5,3.3,3.1,4.9,4.6c-2.2-0.4-2.9,0.9-3.4,2.6c-0.8,3.2-0.9,6.4,0,9.8c0.5,2.2,1.8,3.5,3.6,4.5c1.8,1.1,3.3,0.2,3.3-1.8
			c0.1-2.2-0.1-4.4-0.1-6.6c0.8,1.1,0.5,3,2.3,3.3c3.6-5,3.5-5.4-1.5-9.6c-1.3,2-0.6,4.2-0.7,6.3c-0.2-1.3-0.2-2.6-0.5-3.9
			c-0.2-1.1-0.7-2.3-1.1-3.4c4.7-1.4,7.8-5.1,7.9-9.6c0-0.2,0.1-0.5,0-0.7c-0.7-4.3,0.3-8,4.6-10.3c0.2-0.1,0.3-0.4,0.4-0.6
			c0.1-0.3,0.1-0.7,0.2-1c3.4-0.9,3,3.2,5.3,3.6c-0.6,2.4-1.3,4.9-1.9,7.4c1.6,0.5,3,0.9,4.1-0.4c1.3-1.4,1.2-3.4-0.2-7.7
			c0.3-0.2,0.5-0.5,0.8-0.7c0.3-0.2,0.7-0.3,0.9-0.4c0.2,0.1,0.4,0.1,0.4,0.2c-0.3,3.6-0.7,7.3-1,11c-1.8,0-3.4,0-5.3,0
			c0,2.3,0,4.3,0,6.6c4.1,0.3,5.3-2.8,6.9-5.2c1-1.5,1.8-3.3,2.2-5.1c0.7-3.7,3.4-5.8,6.2-7.8c1.1-0.8,2.4-1.4,3.3-2.3
			c1.1-1.1,2.3-2.5,2.5-3.9c0.3-2.9,1.3-6-0.5-8.9c-0.5-0.8-0.2-2.1,0-3.1c0.5-3,1.1-6,1.6-9.1c-1.4-0.5-2.6-0.9-4-1.5
			c0-0.9-0.3-2,0-3c3.6-11,8.2-21.6,16.5-30.3c-0.5,2-1.1,3.9-1.6,5.9c-0.5,2-1.2,4-1.5,6.1c-0.8,4.4-0.9,8.7,0.6,13
			c0.3,0.9,0.3,2.2,0,3.2c-1.8,5.5-1,10.9,0.8,16.2c0.7,2,0,3.6-0.6,5.3c-0.6,1.7-0.4,3.3-0.5,4.9c-0.3,7.2,1.8,14,2.5,21.1
			c0.3,2.5,0.1,4.9-1.7,6.9c-1.1,1.3-1.5,2.8-0.7,4.4c0.5,1,0.6,2.2,1.3,3c2.7,3.2,1,6.8,1.3,10.2c0,0.5-0.5,1.1-0.9,1.5
			c-2.2,2.1-3.6,4.7-4.4,7.6c-0.2,0.8-0.6,1.6-1.1,2.3c-1.1,1.6-1.2,3.3-0.7,4.9c1,2.9,0.7,5.7,0,8.6c-0.1,0.4,0.5,1,0.7,1.5
			c0.2,0.5,0.5,1.1,0.4,1.5c-0.8,3.2-0.1,6,1.8,8.7c0.9,1.2,1.4,2.6,2.2,3.9c1,1.5,2.1,3.1,5.2,2.8c-2.5,2.9-4.5,5.3-6.6,7.7
			c-2.2,2.6-2.7,5.7-2.3,8.9c0.8,5.8,1.8,11.5,2.8,17.6c-1.5-0.7-2.4-1.8-3.1-3.2c-2.7-5.4-5.5-10.8-6.5-16.8
			c-1.1-6.3-1.4-12.8,0.3-19.1c0.2-0.8,0.5-1.7,0.3-2.5c0-0.3-1.1-0.5-1.7-0.7c1.2-1,0.5-1.7-0.6-3.2c-0.2,1.7-1.3,2.7,0.7,3.1
			c-0.6,1.1-1.2,2.1-1.5,2.6c-1.9,0.6-3.3,1-4.7,1.5c-0.7-1.7,0.6-3.7-1-5.4c-0.2-0.2,1.2-2.1,2.1-3c0.4-0.5,1.4-0.5,2.1-0.7
			c-1.4,2.2-1.7,4.4-0.9,7.5c1.5-2.8,0.5-5.2,0.9-7.5c0.8-0.5,1.6-1.1,2.5-1.6c-0.1,1-0.3,1.9-0.4,3.3c2.3-1.5,2.3-1.5,0.3-3.2
			c0-1.7,0.3-3.4-0.2-5c-1.6-6.1-0.9-12.3-0.3-18.4c0.7-6.9,1.7-13.7,0.2-20.6c-8.5,2.7-13.9,6.9-14.1,11.2c1.1,0.3,2.2,0.6,4,1
			c-0.1,0.9-0.2,2.2-0.2,3.5c0,3.8-0.1,7.6,0,11.4c0,1,0.8,1.9,1.2,2.9c-0.4,0.4-0.9,0.8-1.6,1.4c-0.4-0.6-1.2-1.4-1-1.7
			c1.6-3.1,0.6-6.3,0.9-9.4c0-0.6-0.1-1.2-0.2-2.1c-0.8,0.1-1.4,0.2-2.4,0.3c0-1.4,0-2.8,0-4.2c-0.1,3.2-1.6,5.8-3.1,8.4
			c-0.3,0.5-0.7,1.4-0.5,1.7c1.1,1.6-0.4,2.4-0.7,3.6c-0.6,2.1-1.8,4.1-0.5,6.5c1.6,3,3,3.5,5.7,1.4c0.6-0.4,1.1-0.9,1.9-1.5
			c0.8,1.6-0.1,2.8-0.8,3.8c-2.2,3.2-1.7,6.6-1.2,10c0,0.3-0.1,0.7-0.1,1.3c-2.9-1-5.8-1.1-7,2c-1.7,4.4-4.4,8.8-3.2,13.8
			c0.5,2.1,1.3,4.2,2.2,6.3c1,2.2,2.3,4.4,3.8,7.3c-0.5,0.3-1.4,0.6-2.1,1.2c-2.5,2.4-1.2,5.4-0.3,7.5c1.5,3.4,2.7,6.9,4.2,10.3
			c0.4,0.9,1.3,1.7,2.1,2.8c-6.9,4.1-9.2,11-11.1,18.2c-0.2-1.5-0.5-3-0.7-4.6c-0.4-2.8-1-5.5-2.6-8c-2.1-3.3-4.1-6.5-9-7.5
			c1.7-0.8,2.7-1.3,3.7-1.7c3.1-1.5,5.1-4.8,4.8-8.1c-0.6-6.5-1.3-13.1-1.7-19.6c-0.2-2.9,0.3-5.8,0.5-9c-1-0.2-2.2-0.4-3.5-0.6
			c0-0.2,0-0.3,0-0.5c0.3-0.1,0.7-0.2,1-0.2c2.7-0.1,3-0.3,2.7-2.9c-0.1-0.7,0.1-1.5-0.2-2.2c-0.3-0.7-1-1.3-1.5-1.9
			c-0.7,0.6-1.8,1-2.1,1.8C390.4,172.1,391.2,173.8,389.3,174.5L389.3,174.5z M396.1,126.3c-1,0.5-1.7,1.1-2.4,1.1
			c-1.3-0.1-1.7,0.6-1.8,1.4c-0.2,3.9-0.5,7.9,0.1,12.1C395.5,138.2,396.5,134.5,396.1,126.3z M387.7,140.3c-1.3,1.8-2,2.9-2.8,4
			c-1.5,2.2-1.3,2.9,1.7,3.9C388.4,146,388.1,143.5,387.7,140.3z M390.5,137.1c1.2-6.1,0.9-8.2-1.1-10.1
			C389.3,130.5,388.8,133.9,390.5,137.1z M412.1,130.7c-0.3,0-0.6,0-0.9,0c-0.8,1.1-0.8,2.1,0.9,3.7
			C412.1,132.7,412.1,131.7,412.1,130.7z"/>
		<path d="M441.5,152.1c-1.5,1.8-2.8,3.3-4.4,5.1c-1.3-1.7-2.5-3.3-3.8-5c1.4-1.6,2.8-3.1,4.4-4.9
			C438.9,148.8,440.1,150.3,441.5,152.1z"/>
		<path d="M437.3,159.6c0,3.9,0,7.7,0,11.6c-0.1,0-0.1,0-0.2,0c0-3.9,0-7.7,0-11.6C437.1,159.7,437.2,159.6,437.3,159.6z"/>
		<path d="M414.3,177.4c-1-1.6-2-3,0.7-3.9C416.6,175.1,415.1,176.1,414.3,177.4z"/>
		<ellipse cx="414.3" cy="161.2" rx="0.1" ry="3.1"/>
		<path d="M437.9,144c-0.2-1.8-0.3-2.9-0.4-3.9c0.1,0,0.2,0,0.4,0C437.9,141.1,437.9,142.2,437.9,144z"/>
	</g>
	<path d="M718.9,76.6c-1.5-0.4-2.5-1.4-2.9-2.9C717,74.6,718,75.6,718.9,76.6z"/>
	<path d="M725.5,121.4c0,0.9,0,1.7,0,2.6c-0.1,0-0.1,0-0.2,0c0-0.9,0-1.7,0-2.6C725.4,121.4,725.5,121.4,725.5,121.4z"/>
	<g>
		<path d="M516.7,138.4c1.4,1.4,3.1,1.1,4.8,1.1c4.8,0.1,9.5,0.1,14.3,0.3c2.4,0.1,6.2-2.5,6.6-4.9c0.3-1.6,1-2.9,1.7-4.3
			c1.3-2.8,2.1-5.8,3.1-8.7c0.1-0.4,0.3-0.7,1-1.1c0.2,1.6,0.4,3.3,0.6,4.9c0.4,3.7,1.8,7.1,3.7,10.1c0.8,1.3,2.7,1.9,4.2,2.9
			c-0.5,0.4-1,0.9-1.6,1.4c1.8,1.9,4,2.3,6.5,2.5c-0.7,0.1-1.4,0.2-2.2,0.3c0,0.1,0,0.3-0.1,0.4c1.2,0.2,2.4,0.3,4,0.5
			c-0.5,0.5-0.7,0.8-1,0.8c-4.5,0.6-8.1,3.1-11.2,6.4c-1.5,1.6-1.8,3.7-1.9,5.8c0,0.8,0.1,1.6-0.2,2.5c-1.2-1.6-3-2.7-2.7-5.2
			c0.2-1.9-1.4-4.2-3.3-4.7c-1.2-0.3-2.5-0.6-3.7-0.7c-1.9-0.2-3.8,0.1-5.7-1.1c-1.2-0.7-3.1-0.1-4.7,0c-3.9,0.3-7.8,0.6-11.7,1
			c-1.8,0.2-2.9,1.3-4.2,2.6c-2.3,2.5-3,4.8-1.3,7.8c0.1,0.3,0,0.7,0,1c0.7,9.9,2.2,19.7,4.2,29.5c0.7,3.4,2.8,5.1,6,5.4
			c1.6,0.1,3.2,0.1,4.7,0.5c5.9,1.3,11.7,0.6,17.7-0.5c5-0.9,10.2-1.3,14.5,2.6c0.5,0.4,1.8-0.8,1.6,1.1c-0.1,0.8,0.9,1.7,1.6,2.8
			c0.2-0.7,0.3-1.2,0.6-2.3c1,9.8,1.3,19.1-0.4,28.5c-1-3.5-1.9-7.1-3-10.8c-0.3,0.5-0.6,1-1,1.5c-0.1-0.1-0.3-0.3-0.3-0.4
			c0-1.7,0.2-3.4-0.1-5c-1-5.4-2-6.7-7.4-6.4c-4.2,0.2-8.4,1.2-12.5,1.9c-4.7,0.8-9.5,0.8-14.2-0.2c-3.1-0.7-5.4,0.3-7.5,2.3
			c-3.1,2.9-4.7,6.8-6.4,10.6c-0.8,1.8-1.3,3.7-2,5.5c-0.3,0.7-0.8,1.2-1.3,1.8c-2.4-5.7-6.5-9.6-10.8-13.3c1.8-1.4,3.8-2.4,5.2-4
			c2.6-2.8,2.7-6.7,2.7-10.3c0-2.6-0.5-5.2-1.3-7.8c0,2.5,0,5,0,7.5c-0.7-4.6,0-9.3-2.4-13.7c-0.3,0.9-0.6,1.8-1.2,3.5
			c-0.3-10.3-0.1-19.9-1.9-29.4c-0.5,1.4-0.4,2.8-0.4,4.3c0,1.4,0,2.8-0.2,4.2c-0.3-7.1,0.4-14.3-2.5-21.3c-1.7,0.6-2.6,1.6-3.1,3.2
			c-1,3-2.3,5.9-3.4,8.9c-0.5,1.3-0.7,2.7-1.2,4.6c-1-6.4-3.9-11.4-6.9-16.4c-0.8-1.3-2.3-2-3.8-3.3c4.8-3.8,7.3-9.2,10-14.3
			c1.6,2.3,3.1,4.8,4.8,7c2.3,3,3.9,2.5,5.6-0.9c2.7-5.3,2.5-11,2.5-16.7c0-4.2-0.7-8.4-0.7-12.6c0-4-0.9-7.7-2.4-11.2
			c-0.6-1.4-0.2-2.6,0.4-3.7c1.5-2.8,1.4-5.8,0.5-8.7c-1.2-3.6-3.3-4.6-7.1-3.1c0.3-1.9,0.5-3.6,0.7-5.3c0.8-5.8,1.6-11.6,2.4-17.4
			c0.1-0.9-0.3-1.8-0.5-2.7c0.9-1.2,1.9-2.6,2.9-3.9c-0.1,1.4-0.2,2.9-0.3,4.4c2.2,2,2.2,2,13.1,3c-0.5,0.6-1,1.1-1.6,1.8
			c1.4,0.9,2.1,2,4.3,1c2.1-1,4.9-0.4,7.5-0.4c1.1,0,2.2,0.5,3.4,0.6c3.8,0.2,7.6,0.5,11.4,0.5c1.9,0,3.8-0.2,5.6-0.7
			c3-0.9,6-2,8.8-3c1.9,3.9,3.2,8,5.1,11.8c2.2,4.4,3.2,9.4,0.6,14.2c-0.2,0.3-0.3,0.6-0.4,0.9c-1.6,5.5-5.2,9.3-9.7,12.4
			c-1.7,1.2-3,3.1-3,5.5c0,1.5,0.3,3,0.4,4.4c-1.9-0.9-2.4-2.1-2.9-7.3c-0.4-4.6-0.3-6.6,0.8-8.8c0.6,1.4,1.1,2.8,1.7,4.1
			c0.2,0,0.5-0.1,0.7-0.1c0.1-0.5,0.2-1.1,0.4-1.8c0.6,0.1,1.3,0.3,2.1,0.5c1.3-2.5,2.6-5,1.8-8.2c-0.6-0.2-1.2-0.5-1.9-0.8
			c0.2-0.4,0.3-0.7,0.5-0.9c0.5-0.7,1.1-1.3,1.6-2c0.2-0.3,0.5-1.1,0.4-1.2c-2.4-2.1-0.1-5-1.3-7.4c-1.1-1-2.5-1-4-0.8
			c-1.7,0.2-3.3,0.3-4.8-0.9c-1.6-1.3-3.6-0.6-5.1,0.3c-1.4,0.8-2.4,0.7-3.8-0.1c-2.4-1.4-4.9-2.2-7.9-1.6c-1.9,0.4-2.6,1.1-2.7,2.8
			c-0.3,0.1-0.5,0.2-0.7,0.2c-5-0.3-7.4,1.8-7.1,8.1c0.1,1.3-0.1,2.7,0.1,4c0.3,1.9,0.6,4,3.2,4.4c-0.2,2.3-0.8,4.6-0.7,6.9
			c0.4,6.6,1,13.2,1.5,19.8c0.2,2.3,0.3,4.6,0.5,6.9c0.1,0.9,0.1,1.8,0.3,2.6c0.5,2.3,1.1,4.5,0.3,6.8c-0.1,0.4-0.1,0.9-0.1,1.3
			C512.9,137.9,513.6,138.5,516.7,138.4L516.7,138.4z"/>
		<path d="M516.7,138.4c1.1-0.1,2.2-0.1,3.3-0.2c0,0.2,0,0.3,0,0.5C518.9,138.6,517.8,138.5,516.7,138.4
			C516.7,138.4,516.7,138.4,516.7,138.4z"/>
	</g>
	<g>
		<path d="M691.8,38.3c-0.2-0.2-0.5-0.3-0.5-0.5c0.7-4.8,2.7-9,6.5-12.9c0.1,1.4,0.1,2.1,0.2,2.9c0.3,3.2,0.9,6.3,3.4,8.8
			c1.3,1.4,2.8,3.3,2.9,5c0.4,5.9,4.1,10.5,5.7,15.9c-0.9-1.2-1.8-2.4-3.1-4.1c0,3.4,0.1,6,1.5,8.4c0.7,1.3,1.3,2.7,1.5,4.2
			c0.3,2.3,0.3,4.7,0.5,7c0.2,1.8,0.3,3.7,0.7,5.5c0.9,3.8,2.5,7.4,2,11.4c-0.1,0.7,0.3,1.4,0.6,2.3c0.4-0.4,0.6-0.6,0.6-0.8
			c0.6-4.4,0-9,2.8-12.9c0.3-0.4,0.1-1.1,0.1-1.6l-0.1,0.1c0.6-0.2,1.2-0.3,1.8-0.5c2.6,2,2.7,2.2,2.5,6.5c-0.3-1.4-0.5-2.1-0.7-2.9
			c-2.9,1-4.7,6.4-4.6,12.9c2.7,0.8,6.2-1.7,8.3,2.2c1.6,2.8,2,2.8,1.7,5.8c-1.2-1.7-2.2-3.2-3.3-4.6c-1.6-2.1-3.1-2.3-5.4-1.1
			c-1.2,0.7-2.3,1.7-3.4,2.4c-1,0.7-1.7,3.3-1.3,4.7c1.1,4,0.5,7.8,0.1,11.7c-0.1,1.4-0.3,2.6,0.6,4c0.5,0.8,0.5,2,0.4,3
			c-0.4,3.4-0.7,6.8-1.4,10.2c-0.4,1.8-0.5,3.3,1,4.7c1,0.9,1.5,2.3,1.9,3.1c-0.7,5.5-1.5,10.6-1.9,15.7c-0.1,2.1,0.8,4.3,1.3,6.4
			c0.1,0.3,0.3,0.8,0.5,0.9c3.1,0.9,1.4,2.6,0.8,4.2c-1.4,3.2-2.8,6.4-4.1,9.6c-1.6,3.9,0.1,7.7,0.6,11.5c0.1,1,0.5,2,0.4,2.9
			c-0.6,3.4-1.4,6.8-2.2,10.1c-1.8,7-1.6,14-0.8,21c0.1,1.2,0.7,2.3,0.9,3.7c-2.8-3.3-6.7-5.6-8.4-9.9c-1.8,6.4,1.1,12.3,0.5,18.6
			c-0.3-1-0.8-2.1-0.9-3.2c-0.4-5.4-0.8-10.8-1.2-16.2c-0.1-0.9-0.1-1.9-0.5-2.7c-2.3-4.5-1.1-9.3-1.8-14c-0.1-0.6,0.3-1.4,0.7-1.8
			c1.9-1.6,1.9-3.9,2.2-6.1c0.6-4.7-0.1-9.2-2.4-13.4c-0.4-0.7-0.6-1.5-1-2.4c4.6-6.4,3-13.3,1.1-20.3c-1.2-4.3-1.5-8.4,1.9-12
			c1-1,1.3-2,1.3-3.4c0-2.9,0.4-5.8,0-8.7c-0.3-2.2-1.1-5.1-2.6-6c-1.8-1.1-2.2-2.9-2.1-3.9c0.3-1.9-0.6-3.1-1.2-4.5
			c-1.3-3.1-2.8-6.1-4-9.2c-0.5-1.3-0.5-2.7-0.7-4.1c-0.3-2.1-2.2-3.4-4.3-2.8c-0.1,0-0.2,0.1-0.3,0.1c-6.1,2-6.1,1.9-6.6,8.3
			c-0.2,2.3,0.1,4.6,0.2,6.9c0.2,2.9,0.4,5.7,0,8.7c-0.5-5.5-0.9-11-1.4-16.6c-0.9,0.2-1.4,0.3-1.9,0.3c0-0.3-0.1-0.5,0-0.7
			c0.8-2,1.8-4,2.5-6.1c0.5-1.2,1.2-1.9,2.4-2.2c2.5-0.5,5-1,7.5-1.6c-1.4-3.4-2.3-4-5.7-3.9c-0.1,0-0.2,0-0.3,0
			c-1.5,0-3.4,0.5-3.9-1.3c-0.4-1.4-0.4-3.6,0.4-4.6c4.5-5.6,6.5-12.4,9.1-19c1-2.7,2-5.5,2.2-8.3c0.1-2.7-0.1-5.3,0.7-8
			c0.2-0.8,0.1-2.1-0.4-2.6c-2.3-2.6-1.2-5.4-0.7-8.2C691.3,39.8,691.5,39,691.8,38.3c0.8-0.9,1.6-1.7,2.5-2.5
			c-0.8,2.8-1.6,5.5-2.4,8.3c-0.4,1.2-0.7,2.4,0.9,3.5c0.3-1,0.5-1.7,0.7-2.5c0.1,0,0.2,0.1,0.3,0.1c-0.2,3.4-0.4,6.8-0.6,10.6
			c0.8-0.9,1.2-1.3,2.1-2.3c-2.4,7.5-4.7,14.3-6.8,21.1c-1,3.4-1.6,6.9-3.9,9.8c-1.3,1.6-2.5,3.3-4.1,5.4c5.5-0.5,9.2,1.8,12.2,5.7
			c1.1-2.6,2.1-4.9,3-7.3c0.5-1.2,1.1-2.6,1-3.9c-0.2-2.4-0.8-4.7-1.4-7c-0.8-2.9-1.1-5.8,0.2-8.7c1-2.3,2.6-4.8,2.4-7.1
			c-0.2-3.4,0.1-6.6,0.8-9.9c0.1-0.5,0-1.1-0.1-1.7c-0.1-1.6-0.6-3.3-0.1-4.7c1.5-4,1.6-7.7-0.5-11.6c-0.8-1.5-0.6-3.5-0.9-6.1
			c-1.3,1.9-2,3.2-2.1,4.9c-0.1,1.1-0.5,2.2-0.7,3.3c-0.3-0.3-0.5-0.6-1-1.3C692.6,36,692.2,37.2,691.8,38.3z M705.9,117.1
			c3.2-5.2,4.8-10.5,3.9-16.3c-0.4-2.5-1.5-5.1-2.6-7.4c-1-2-3.1-2.3-4.1-0.7c-1.3,2-2.2,4.3-2.2,6.8c0,1.9-0.2,3.9,1.7,5.2
			c0.2,0.2,0.3,0.6,0.4,0.9C703.8,109.4,704.8,113.1,705.9,117.1z"/>
		<path d="M716.1,73.8c-0.7-2.9-1.4-5.9-2.1-8.8C714.7,67.9,715.4,70.9,716.1,73.8z"/>
		<path d="M702.4,236.5c1.9,1.2,1.9,2.5,0.5,4.2C702.7,239.2,702.6,237.9,702.4,236.5z"/>
		<path d="M717.1,76.9c-2,0.4-2.5-1.4-3.3-2.6C714.9,75.2,716,76.1,717.1,76.9C717.1,77,717.1,76.9,717.1,76.9z"/>
		<path d="M711.8,67.6c0,0.8,0,1.7,0,2.5c-0.1,0-0.2,0-0.4,0c0-0.8,0-1.7,0-2.5C711.6,67.6,711.7,67.6,711.8,67.6z"/>
	</g>
	<g>
		<path d="M616.8,258.4c1.9-1.1,3.7-2.2,5.6-3.3c4.9-2.9,8.7-6.9,11.6-11.7c1.6-2.7,3.5-5.2,4.8-8c1.7-3.6,3.1-7.4,4.3-11.3
			c0.5-1.7,0.3-3.6,0.3-5.5c0-0.5-0.1-1,0-1.3c2.1-5.4,1-11,1.1-16.5c0-3.8-0.6-7.6,0.5-11.4c0.2-0.9,0.1-1.8,0-2.8
			c-0.2-6.1-0.5-12.2-0.7-18.3c-0.2-6.7-0.4-13.4-0.6-20.1c0-0.4,0.1-0.9,0.1-1.4c1.1,0.8,2.1,1.4,3,2.1c0.2-0.1,0.3-0.2,0.5-0.4
			c-0.2-0.6-0.3-1.2-0.5-1.8c-0.8-2.3-1.6-4.5-2.3-6.8c-0.3-0.8-0.5-1.5-0.8-2.3c-0.2-0.5-0.8-1.2-0.7-1.6c1.1-3.3-0.8-6.2-1.4-9.2
			c-0.6-3-2.2-5.5-4-7.9c-3.2-4.4-6.6-8.7-9.6-13.3c-1.7-2.6-4.1-4.2-6.4-6c-2.7-2.2-5-4.5-6.9-7.8c-0.3,2.1-0.7,4.1-0.9,6.2
			c-0.3,3.7-0.7,7.4-0.8,11.1c-0.1,1.7,0.2,3.4,0.3,5.1c0,7-0.1,13.9,0.1,20.9c0,1.9,0.9,3.8,1.2,5.7c0.8,4.2,1.4,8.5,2.4,12.6
			c1.6,6.4,3.9,12.6,8.9,17.6c-1.1,1.6-2.1,3-3.1,4.3c-2.4,3.1-4,6.5-3,10.6c0.2,1-0.3,2.2-0.6,3.8c-0.4-2.6-0.6-4.6-1-7.4
			c-0.9,1.2-1.5,1.9-1.9,2.6c-4.3,7.1-6.9,14.9-9.5,22.7c-0.4,1.3-0.2,2.7-0.4,4.1c-0.2,1.9-0.4,3.8-0.6,5.8c-0.3,0-0.5,0-0.8,0
			c-0.5-3.8-0.9-7.7-1.6-11.5c-0.6-3.7-1.5-7.3-2.9-10.8c-0.3,0-0.6,0.1-0.8,0.1c0,2.6,0,5.2,0,7.7c-0.3,0-0.6,0-0.9,0.1
			c-0.2-4.7-0.2-9.3-2.1-13.8c0,1.8,0,3.7,0,5.5c-0.2,0-0.3,0-0.5,0c-0.4-3.3-0.7-6.6-1.1-9.9c-0.2-1.6-0.5-3.3-1.3-4.6
			c-1.8-2.9-3.9-5.8-8.5-3.4c0.3-1.4,0.5-2,0.7-2.6c2.6-6.9,5.1-13.9,7.8-20.8c1.8-4.6,2-9.2,1.6-14c-0.4-4.7-0.4-9.5-0.4-14.2
			c0-9.4,0.3-18.8,0.2-28.1c0-3.1-0.8-6.2-1.5-9.2c-0.3-1.2-1.3-2.1-2.3-3.7c-3.5,3.7-7.2,6.9-10,10.8c-0.7,1-0.6,2.7-0.8,4
			c-0.2,1.2-0.3,2.4-0.4,3.6c-0.3,0-0.5,0-0.8,0.1c-0.3-2.2-0.7-4.4-1-6.6c-0.5-3.2-1.3-6.2-3.6-8.7c-2.2-2.4-4.4-4.8-6.4-7.3
			c-0.9-1-1.5-2.3-2-3.2c1.6-1.8,3-3.2,4.2-4.8c4.5-6.2,9-12.3,13.5-18.6c1.8-2.5,3.3-5.2,5.3-8.2c0.3,0.5,0.7,1.2,1.2,1.8
			c5,6,10.7,11.2,17.4,15.3c1,0.6,1.8,1.5,2.7,2.2c0.6,0.5,1.3,1.1,2,1.4c2.6,1.1,5.1,2.3,7.3,4.3c2.1,1.8,5,2.8,7.5,4.2
			c1,0.6,1.9,1.3,2.7,2.1c3.3,3.1,6.5,6.2,9.7,9.4c0.4,0.4,0.9,0.7,1.7,1.3c4.4-4.2,8.8-8.3,11.6-13.6c2.8-5.3,4.8-10.9,7.3-16.9
			c0.8,3.6,1.5,6.9,2.4,10c2,7,4,14,6.1,21c0.4,1.3,0.8,2.7,1.6,3.8c1.4,1.9,1.2,3.7,0.6,5.9c-0.8,3-1,6.1-1.3,9.2
			c-0.2,1.4,0,2.7-0.6,4.1c0-3,0-6.1,0-9.1c-0.3-0.1-0.5-0.1-0.8-0.2c-0.5,1.2-1.1,2.4-1.4,3.7c-1,4.4-1.9,8.8-2.9,13.2
			c-0.5,2.4,0.1,4.6,1.2,6.7c1.2,2.2,1.3,4.4,0.4,6.7c-1.1,2.8-0.9,5.4,0.3,8.1c0.6,1.4,0.8,2.8,0.1,4.3c-1.3,2.7-1.8,5.5-0.7,8.4
			c0.2,0.5,0.2,1.2,0.1,1.7c-0.6,2.2-1.2,4.4-0.5,6.8c0.1,0.3,0,0.8-0.2,1c-1.9,1.9-1.1,4.4-1.2,6.6c-0.1,3.9-0.1,7.8,0,11.7
			c0.1,3.6,0.7,7.1,0.6,10.7c-0.2,7.9,0.2,15.9-0.3,23.8c-0.2,3.6-1.3,7.2-1.8,10.8c-0.5,3-0.8,5.9-1.2,8.4
			c-0.1-1.8-0.3-4.1-0.4-6.5c-3.2,2.9-2.6,6.7-2.9,10.9c-0.8-1.3-1.3-2.1-2-3.2c-2.4,3.3-2.2,7-2.9,11.1c-0.5-2-0.8-3.5-1.2-5.3
			c-2.3,2.2-4.4,4.3-6.5,6.3c-1.3,1.2-2.7,2.6-4.2,3.5c-6.2,3.6-12.9,6.2-19.8,8.2c-1.2,0.3-2.5,0.2-3.7,0.3
			C616.9,258.9,616.8,258.6,616.8,258.4z M607.6,185.6c2.2-1.2,2.5-3.3,2.2-5.5c0.6-0.4,1.4-0.8,1.8-1.4c1.5-2.7,2.9-5.5,4.5-8.6
			c-6.9-9.7-6.8-21.1-6.9-32.5c-0.1-11-0.7-22.1-0.7-33.1c0.1-7.6-1.3-15.2-0.2-22.8c0.3-1.9-0.4-2.5-2.4-2.6
			c-1.9-0.1-3.9-0.1-5.9,0c-0.7,0-1.4,0.5-2,0.8c0.4,2.7,0.9,5.1,1,7.4c0.1,3-0.2,6-0.1,9c0.2,13.2,0.3,26.3,0.7,39.5
			c0.2,6.4-0.3,12.8-1.3,19.1c-0.9,5.6-2.8,10.9-5.6,16c8.5,7.3,10.8,17.1,12.3,28c1-4.3,1.9-7.7,2.7-11.2
			C607.8,187,607.6,186.3,607.6,185.6z M606.9,78.6c-0.9-2.6-1.7-4.5-4-5.8c0,2.2,0,3.9,0,5.8C604.2,78.6,605.3,78.6,606.9,78.6z
			 M602.1,73.3c-0.2-0.1-0.4-0.2-0.7-0.2c-0.8,1.8-2.9,3-2.8,5.5c1.2,0,2.3,0,3.4,0C602.1,76.7,602.1,75,602.1,73.3z"/>
		<path d="M580.2,105.6c0.1,1.5,0.2,3,0.3,4.5c-0.7-1.5-2.3-2.7-1.2-4.6C579.6,105.6,579.9,105.6,580.2,105.6z"/>
		<path d="M608.3,178.7c-0.3,0.6-0.9,1.3-0.9,1.9c-0.1,1.7,0.1,3.4,0.2,5.1c-0.2-1.2-0.5-2.4-0.5-3.7c-0.1-3,0.1-6,0-9
			c0-0.8-0.3-1.7-0.5-3.2c-2.2,2.6-1.4,5.5-3,7.9c-0.6-2.5-1.2-4.6-1.8-7.2c-1.6,0.2-3.3,0.4-4.9,0.5c-0.1-0.2-0.2-0.4-0.3-0.5
			c0.9-0.6,1.7-1.2,2.6-1.6c1.5-0.8,1.8-1.9,1.3-3.5c-0.5-1.5-0.9-2.9-0.8-4.7c1.1,1,2.2,2,3.6,3.3c0.6-5.3,0.3-10.3,0.4-15.3
			c0.1-5,0-10.1,0.3-15.1c0,10.1,0,20.1,0,30.7c2.7-1.3,3.8-3.3,5.6-4.9c-0.9,2.3-1.8,4.7-2.7,7.2c1.3,1.1,2.6,2.1,4,3.3
			c-1.2,0.4-2.6,0.4-3.1,1.1c-0.6,0.8-0.4,2.2-0.4,3.3C607.7,175.8,608.1,177.2,608.3,178.7z"/>
		<path d="M602.1,120.8c0.7-1.5,1.3-2.9,2.1-4.8c0.9,1.5,1.6,2.8,2.3,4.2c-0.8,1.2-1.6,2.3-2.5,3.5
			C603.3,122.7,602.7,121.8,602.1,120.8z"/>
		<path d="M603.9,104.8c0-3.9,0-7.9,0-11.8c0.1,0,0.1,0,0.2,0c0,3.9,0,7.9,0,11.8C604,104.8,604,104.8,603.9,104.8z"/>
		<path d="M603,86.6c0-1.2,0-2.5,0-3.7c0,0,0.1,0,0.1,0c0.1,1.2,0.2,2.4,0.2,3.6C603.3,86.5,603.1,86.6,603,86.6z"/>
	</g>
	<g>
		<path d="M309.8,82.2c-3.4-2.2-7.2-2.2-10.7-0.7c-1.4,0.6-2.2,2.7-3.1,4.3c-2.1,3.8-1.7,7.6,0,11.4l0,0c-0.4,3.3-1,6.5-1.1,9.8
			c-0.1,4.8,0.6,9.7,0.3,14.5c-0.3,4,1.5,7.6,1.2,11.6c-0.2,2.5,0,5.1,0.2,7.6c0.2,2.1,0.2,4.2,0.9,6.1c0.8,2.4,0.9,4.7,0.7,7.2
			c-0.1,1.6-1,3.2,0.5,4.6c0.2,0.2,0.1,0.9-0.1,1.3c-1.2,4.6-2.5,9.1-3.5,13.7c-0.3,1.3-0.3,2.8,0,4.1c0.9,4.2,2.6,8.3,5.8,11.1
			c3,2.8,6.6,5.2,11.2,3c1-0.4,2.5,0.1,3.7,0.3c1,0.2,1.9,0.9,2.9,0.9c2.6,0.2,5.2,0.3,7.8,1c1.7,0.5,3.8-0.6,5.6-1.1
			c1.4-0.4,1.9-1.6,1.5-3.1c-0.3-1-0.5-1.9-0.9-3.6c3.7,2,7.2,3.4,10.3,5.5c4.6,3.1,8.6,6.9,12.3,11.1c1.4,1.6,2.2,3.2,1.8,5.6
			c-1.1-0.8-2.2-1.4-3.1-2.2c-1.9-1.9-4.3-2.7-6.8-3.2c-4.1-0.9-8.1-1.8-12.1-2.7c-0.5-0.1-1.1,0-1.6,0.1c-0.5,0-1.2,0.4-1.4,0.2
			c-1.7-1.7-3.8-1.4-5.9-1.2c-1.3,0.1-2.8,1.2-3.8-0.6c-4.4,0-8.8-0.5-13,1.3c-3.3,1.4-6.5,2.9-9.7,4.7c-6.4,3.5-8.7,9.1-8.5,16.2
			c0.1,4.8-0.4,9.6-0.6,14.4c-0.3,0-0.6,0-0.8,0c0-1.3,0-2.6,0-3.9c-0.1-2.4-0.3-4.8-0.4-7.2c-0.1-1.5,0.1-2.9,0-4.4
			c-0.2-2.2-0.3-2.2-2.5-3.6c-2.2,4.1-2.2,8.6-2.1,13.1c-0.8-5,0.1-10.4-2.5-15.3c3.2-2.9,2.6-6.8,1.7-10.6
			c-0.5-2.2-0.4-3.8,0.9-5.7c1-1.4,1.2-3.4,1.3-5.2c0.2-3.7,0.2-7.4,0.1-11.1c0-0.9-0.5-1.7-0.7-2.6c-0.1-0.4-0.6-1-0.4-1.2
			c1.8-2.6-0.1-5.4,0.4-8.1c0.5-2.9,0-6,0-9c0-3,0-6,0.2-9c0-1,0.5-2,0.8-3c0.2-0.7,0.5-1.3,0.5-2c0.1-5.9,0.3-11.8,0.1-17.6
			c-0.2-5.9-1-11.7-1.6-17.6c-0.2-2.3-0.4-4.5-0.3-6.8c0.1-3.9-0.7-7.8-2.4-11.6c-0.9-2.1-0.7-4.7-0.8-7.1c-0.2-3.2-1-6.3-2.7-9.2
			c-0.1,4.3-0.6,8.5,0.4,12.7c-0.2,0-0.5,0-0.7,0.1c-0.2-1.2-0.5-2.4-0.6-3.6c-0.3-3.2-0.5-6.4-0.7-9.7c-0.1-1.4-0.5-2.5-2.6-2.6
			c2.8-4.3,5.4-8.2,8.1-12.1c0.2-0.3,1.1-0.2,1.9-0.3c0.1,3.8,3.1,5.7,5.2,8.1c0.3,0.3,0.8,0.5,1.2,0.7c5.8,1.4,11.5,3.1,18.1,3.6
			c-1.8-5.3-3.8-9.9-8.7-12.9c2.4-2.6,3.7-5.7,3.1-9.5c-0.6-3.6-1.2-7.1-5.8-8.5c5-4.8,7.7-10.6,10.7-16.5c2,1.5,4.9,2.2,6.4,4.9
			c0.7,1.2,1.2,2.1,1,3.7c-0.3,2.3,0.5,4.8,0.6,7.2c0.1,1.9-0.3,3.9-0.1,5.9c0.2,1.9,0.6,4,1.4,5.7c1,2,2.5,3.8,3.7,5.7
			c-0.4,4.6-0.8,9.1-1.3,14.1c3.3,0.7,6.7,0.9,10,0.2c5.7-1.1,11.4-0.5,17.4,0.3c-2.8,1.5-5.3,2.8-7.6,4.1c-1,0.6-2,1.3-2.7,2.1
			c-1.3,1.6-3,2.8-5,3.4c-1.8,0.6-2.6,1.9-2.7,3.7c-0.1,1.4,0,2.7-0.4,4.1c-0.1-0.6-0.3-1.3-0.2-1.9c0.3-3.7-2.1-5.7-4.9-7.2
			c-0.9-0.5-2.2-0.2-3.3-0.2c0.5,1.6-1.7,1.6-1.7,3.3c-0.2,6.7-0.4,13.4,0.8,20.1c0.3,1.8,0.4,3.6,0.1,5.6c-0.2-0.9-0.5-1.8-0.7-2.7
			c-0.5-2.8-0.5-5.9-1.7-8.4c-2.3-5.1-3.3-10.4-4.8-15.7C312.3,82.5,310.8,83,309.8,82.2L309.8,82.2z M311,57.5c0,2.4,0,4.8,0,7.2
			c0.2,0,0.3,0,0.5,0C311.4,62.3,311.2,59.9,311,57.5c0.2-3.3-0.7-6.8,1.2-10.1c0.3,4.1,0.6,8.1,1,12.2c0.9-6-1.4-12,0.9-17.6
			c-1.7-2.8-3.2-5.4-4.8-8.1c-1.4,2.7-2.8,5.3-4,7.6c0.7,2.2,1.6,4.1,1.8,6c0.2,2.1-0.4,4.3-0.4,6.5c0,1.5,0.4,3,0.6,4.4
			c0.1,0,0.2,0,0.2-0.1c0.2-2.9,0.4-5.8,0.6-8.7c1.6,1.8,1.9,3.8,1.9,5.9C310.2,56.1,309.6,57.3,311,57.5z M300.9,199.6
			c-5.2-1.5-8-5.4-10.7-9.5c1.5,4.6,0.6,8.9-0.8,13.4C292.9,200.8,296.7,200,300.9,199.6z M309.2,63.1c-0.3,0-0.6,0-0.9,0
			c-0.1,1.6-0.2,3.2-0.2,4.9c0.2,0,0.4,0,0.6,0C308.8,66.4,309,64.8,309.2,63.1z"/>
		<path d="M329.8,109.6c0-4,0-8,0-12.1c0,0,0.1,0,0.1,0c0,4,0,8.1,0,12.1C329.9,109.6,329.9,109.6,329.8,109.6z"/>
		<path d="M290.1,238.5c0.6,2.2,1.2,4.4,1.8,6.6c-0.3,0.1-0.6,0.1-0.8,0.2c-0.5-2.2-1.1-4.4-1.6-6.7
			C289.7,238.6,289.9,238.5,290.1,238.5z"/>
		<path d="M309.8,82.2c0,3,0,6,0,9c0,0,0,0,0,0C309.8,88.2,309.8,85.2,309.8,82.2C309.8,82.2,309.8,82.2,309.8,82.2z"/>
		<path d="M284.2,178.9c0,1.9,0,3.8,0,5.7c-0.1,0-0.2,0-0.3,0c0-1.9,0-3.9,0-5.8C284,178.8,284.1,178.9,284.2,178.9z"/>
		<ellipse cx="284.1" cy="158.4" rx="0.2" ry="3.2"/>
		<path d="M298.8,142.9c0,1.1,0,2.2,0,3.3c-0.1,0-0.2,0-0.3,0c0-1.1,0-2.1,0-3.2C298.6,143,298.7,143,298.8,142.9z"/>
		<path d="M296.1,97.3c-0.3-1.2-0.5-2.4-0.8-3.5c0.2,0,0.5-0.1,0.7-0.1C296.1,94.9,296.1,96.1,296.1,97.3
			C296.1,97.3,296.1,97.3,296.1,97.3z"/>
		<path d="M310.6,45.2c-3-1.9-3-1.9-3.6-3.3c0.6-1.3,1.3-2.6,2.1-4.2c1,1.5,2,2.8,3,4.3C311.6,43,311.1,44,310.6,45.2z"/>
	</g>
	<g>
		<path d="M67.4,201c-1.5,1.4-3,2.7-5,4.5c11.2,1.3,20.9-1.8,30.8-5.1c-0.1,0.9-0.3,1.6-0.2,2.2c0.4,1.1,0.9,2.3,2.3,2
			c4.1-0.8,7.4,1.2,10.9,2.7c1.8,0.8,3.7,1.4,5.6,1.8c2.7,0.5,3.5-0.2,4.9-2.6c3.4-5.9,8.4-9.9,14.8-12.4c-3.6,3.4-5.3,7.4-4.7,12.2
			c0.7,4.8,3.1,8.3,8.5,9.4c-1.2,1.7-2.4,2.6-4.3,2.8c-18.7,1.5-37.3,3.2-56,4.6c-8.5,0.7-17.1,0.9-25.6,1.3
			c-0.3,0.8-0.5,1.4-0.8,2.2c-1.4-1.7-3.1-1.9-5-1.7c-2.7,0.2-5.3,0.3-8,0.1c-2.1-0.2-3.9,1.4-6.3,0.4c-1.9-0.8-4.3-0.3-6.5-0.5
			c-1.9-0.2-3.5-0.1-4.3,2c-0.9,2.2-1.5,4.4,0,6.6c1.3,1.9,3.3,3,5.8,3.3c-1.5,2.3-3.3,2.9-5.5,2.2c-2.3-0.7-4.2-3-4.4-5.3
			c-0.2-2.8,0.8-5.3,2.7-7.3c1.5-1.6,3.2-3,4.7-4.5c-0.5-1.1-1-2-1.4-2.9c3.9,4.2,9,3.3,14,3.7c0-1.5,0.3-2.7,0-3.6
			c-0.9-2.5,0.6-4.1,1.9-5.8c0.9-1.1,1.8-2.1,2.6-3.2c-1.4-0.2-2.4,0.1-3.4,0.3c-0.4,0.1-1.1,0.4-1.3,0.2c-2.1-2-4.7-1-7-0.9
			c-1.6,0.1-3.9,1-4.7,2.3c-1.2,2-1.5,4.6-2.1,7c-1.9-0.2-1.1-1.6-1.3-2.6c-0.2-0.9-0.5-1.8-0.9-3.4c1.2-1.3,3.1-3.1,4.8-5
			c0.8-0.8,1.3-1.8,2.1-2.6c0.5-0.5,1.3-0.9,2-1.2c3-1.4,6.1-0.5,9.2-0.5c4.6,0.1,8.4-1.2,11.6-4.5c1.4-1.4,2.8-2.8,4.4-4
			c1.1-0.8,2.4-1.2,3.6-1.8c-6.2-2.6-8.8-8.2-6.6-15.4c4-13.2,11.5-23.9,23.9-30.7c2.1-1.1,4.4-1.8,6.9-2.2c-0.3,0.3-0.6,0.8-1,1
			c-7.5,3.2-11.6,9.3-13.9,16.8c-1.5,5-2.4,10.2-0.9,15.4c0.6,2.2,1.4,4.4,4.2,5.4c0-5-1.1-10,2-14.2c2.7-3.8,4.7-8.3,10.2-10.1
			c-1.9,2.1-1.6,5.3-4.9,6c-0.4,0.1-0.8,0.9-0.9,1.4c-0.4,1.9-0.7,3.9-0.8,5.8c0,0.8,0.5,1.7,1,2.4c0.9,1.4,1.3-0.3,2-0.4
			c3.9-0.2,6.7-2.6,9.7-4.6c1.4-0.9,2.7-2.2,4-3.3c0.5-0.4,0.9-1,1.2-1.6c1.5-4,3.3-7.9,2.9-12.5c0.2,0.8,0.3,1.7,0.5,2.6
			c0.4-0.1,0.9-0.1,1-0.3c2.4-3.3,4.7-6.5,7.1-9.8c1.9-2.7,1.7-10.9-0.4-13.6c5.9-6.9,5.6-13.6-1.2-15.8c2.1-2.8,5.2-4.4,7.6-6.9
			c0.6,1.9,0.8,3.4,1.5,4.7c2.3,4.8,8.8,7.4,14.3,5.5c5.3-1.8,8.9-5.4,9.8-11.1c0.5-3,1.3-6.2-1.2-9.2c4.1-2.8,8.2-5.5,12.2-8.3
			c0.1,0.1,0.2,0.2,0.3,0.3c-1.6,2.4-3.2,4.9-4.9,7.3c-1.1,1.5-1.5,2.9-0.4,4.8c1.4,2.4,2.3,5,3.4,7.6c1.5,3.3,1.4,6.8,1,10.2
			c-0.2,1.9-0.4,3.9-2.3,5.2c-0.7,0.5-0.9,1.6-1.4,2.4c-1.3,1.9-2.1,4.1-5,4.3c-0.9,0.1-1.7,1.1-2.6,1.6c-0.8,0.5-1.7,1-2.8,1
			c0.5-0.6,1-1.2,1.8-2.1c-4.6,0.9-8.4,2.4-11.6,5.1c-0.3,0.2-0.6,0.4-0.8,0.7c-3.4,4.8-5.1,10.2-5.3,16.3c0.8-0.1,1.4-0.1,2.1-0.1
			c-0.2,0.3-0.3,0.7-0.5,0.8c-1.7,0.8-2.3,2.2-2.1,4c0.5,3.6,1,7.2,1.6,10.8c-1.6-1.5-3.1-3-3-5.8c0.1-1.8-0.5-3.6-0.8-5.6
			c-0.6,0.3-1.2,0.4-1.6,0.7c-1.1,0.7-2.1,1.5-3.1,2.2c-3.2,2.2-9.9,9.2-12.2,12.4c-2.3,3.2-5,6.1-7.3,9.2
			c-2.6,3.4-6.5,4.5-10.3,5.8c-0.8,0.3-2-0.6-3.3-1c-0.7,2.2,0,4.4,0.4,6.8c-2.3,1.7-4.3,3.9-7.3,4.8c1-2.6,0.1-5-0.3-7.7
			c-2,1.2-2.2,1.3-2,2.9c0.3,1.8-1.3,4.2,1.2,5.5C67.2,201,67.3,201,67.4,201z M46.1,216.4c0.8-0.8,1.5-1.6,2.2-2.3
			c-1.9-3.2-4.2-3.7-6.6-1.7c-2.2,1.8-3,4.6-3.8,7.2c-0.4,1.1,0.6,1.3,1.5,1.2c-0.2,0.4-0.4,0.7-0.8,1.5c2.7-0.1,5.1-0.2,7.9-0.3
			C45.8,219.8,47.7,218.1,46.1,216.4z M83.8,216.4c-0.9-0.4-1.9-1.4-2.6-1.2c-1.8,0.5-3.1,0-4.5-0.8c-0.7-0.4-1.5-0.5-2.3-0.6
			c-5.4-0.4-10.7-0.8-16.1-1.2c0,0.2,0,0.4,0,0.5c1.5,0.1,3,0.3,4.5,0.4c-1.7,0.5-3.3,0.4-4.9,0.5c-6.1,0-6.4-1.3-8.4,6.7
			c0,0.2,0.1,0.4,0.3,0.9c3.3-0.2,6.6-0.5,9.9-0.7c10.2-0.6,20.3-1.1,30.5-1.7c1.5-0.1,3-0.5,4.6-0.7c0-0.2,0-0.5,0-0.7
			c-0.7-0.1-1.4-0.3-2.2-0.4C89.5,217.1,86.6,216.8,83.8,216.4c1-0.1,2,0,3.1,0c0-0.2,0-0.3,0-0.5C85.8,216.1,84.8,216.3,83.8,216.4
			z M106,162.4c-0.2-2.1-0.3-4.1-0.4-6c0-0.3-0.2-0.6-0.3-0.9c-3.4,3-5.3,7-4.6,10.1C102.5,164.4,104.2,163.4,106,162.4z M110,159.3
			c1.5,0,2.5-0.5,2.5-2.1c-0.1-3.3-0.4-6.5-0.6-9.9C109.4,149.2,109.1,151.6,110,159.3z M109.4,136.4c0.3,0.1,0.5,0.1,0.8,0.2
			c0.3-1.1,1.1-2.2,1-3.3c-0.2-2.2,0.7-4.6-1.4-6.4C108.3,129.1,108.2,131.8,109.4,136.4z M114.2,130.4c0.2,0.1,0.4,0.2,0.6,0.3
			c1.2-1.3,2.3-2.6,3.7-4.2c-1.8-0.3-2.9-0.6-4.3-0.8C114.2,127.4,114.2,128.9,114.2,130.4z M59.4,205.8c-0.1-1.8-0.2-3.2-0.3-4.7
			c-2,0.5-3.6,0.9-4.2,2.8C56.2,204.5,57.4,205,59.4,205.8z"/>
		<path d="M109.3,24.2c-2.6,3-3.9,6.3-3.8,10.4c0,5.3,5.3,10.6,10.6,10c4.6-0.6,8.9-1.4,11.8-5.4c0.5-0.7,1.1-1.6,1.2-2.4
			c0.3-2,0.4-4.1-1.3-5.5c-1.5-1.2-3.4-1.1-5.3-0.3c-0.5,0.2-1.1,0.3-1.6,0.4c0,0,0.1,0.1,0.1,0.1c3.5-4,9.3-5.1,13.7-2.7
			c3,1.6,5.1,3.9,6.7,6.8c0.6,1.1,0.8,2.5,0.8,3.7c-0.1,3-0.5,6-0.7,8.8c2,2.2,4.1,4.2,5.8,6.5c3.6,4.8,3.1,10.9-1,15.2
			c-1.6,1.7-3.3,3.2-5.1,4.7c-1.4,1.2-3,2-3.1,4.3c0,0.7-1.1,1.4-1.8,2c-5.9,4.8-10.9,10.3-15.1,16.7c-3,4.5-5.2,9.3-6.2,14.6
			c-0.1,0.6-0.4,1.2-0.5,1.9c-0.3,0-0.5,0-0.8-0.1c0-1-0.3-2.1-0.1-3.1c1.2-4.9,1.1-9.9,0.4-14.8c-0.1-1.1,0.2-2.2,0.2-3.3
			c0.2-2.5,0.7-5-1.2-7.3c-1.4-1.6-3-2.3-4.9-1.8c-7.6,2.1-14.3-0.7-21.1-3.5c-2.2-0.9-4.3-1.9-7.1-3.2c0.9,1.2,1.4,1.9,2.3,3.2
			c-1-0.5-1.4-0.6-1.7-0.9c-2.8-3.3-6.5-4.4-10.6-5.1c-3.2-0.5-6.4-1.2-9.5-1.8c-1.8-0.4-3.6-0.7-5.4,0.1c-0.5,0.2-1.2,0.3-1.7,0.1
			c-2-0.8-3.8,0-5.7,0.7c-0.9,0.4-2,0.5-3,0.8c-3.1,6-3,17.2,0.4,25.1c-3.4,4.1-5.2,9.1-6,14.4c-0.3,2.2-0.4,4.4-0.3,6.6
			c0,1.9-0.7,3-2.8,3.9c0.3-8.5-2.3-15.9-7-22.8c5.1-7.7,7.8-15.9,3.7-25.4c4.4-3.8,8-8.6,8-14.8c0-6.1-2.6-11.1-8.4-14
			c2.5-3.4,5-3.8,8-1.1c2.3,2.1,4.4,4.4,6.3,6.9c1.9,2.5,4.2,3.3,7.2,3.2c8.9-0.5,17.8-0.8,26.7-1.2c13-0.6,25.9-1.1,38.9-1.7
			c3-0.1,6-0.3,9-0.6c1.3-0.1,2.5-0.7,3.8-1c0-0.3,0-0.5-0.1-0.8c-1.2-0.2-2.4-0.4-4.1-0.7c1.7-1.7,3.5-1.5,5.1-1.6
			c1.5-0.1,2.4-0.7,2.7-2.1c1.1-5,0-9.6-3-13.8c-0.2-0.2-0.6-0.3-0.9-0.4c-1.4,7.9-8.5,13.8-17.3,15c-5.5,0.7-9.7-2.4-11.6-6.8
			C101.2,34.4,103.8,27.2,109.3,24.2L109.3,24.2z M50.7,61.7c1.5-0.3,2.6-0.5,3.7-0.7c1.6-0.2,3.2-0.6,4.7-0.4
			c4.2,0.5,8.5,1.3,12.7,2.1c0.9,0.2,2.5,0.6,2.5,0.9c-0.1,1.9,1.6,1.8,2.5,2.1c5.4,2.1,10.8,4.1,16.2,6c0.6,0.2,1.3,0.4,2,0.6
			c3.4,0.9,6.9,1.8,10.4,2.5c0.9,0.2,2-0.3,2.9-0.7c1-0.4,1.8-1.3,2.8-1.8c3.9-2,6.2-6.4,5.3-10.4c-1-4.3-3.5-6.1-8.8-6.1
			c-4.2,0-8.3,0.2-12.5,0.3c-9.8,0.3-19.7,0.6-29.5,0.9c-3.4,0.1-6.7,0.3-10.1,0.6C53.3,58,51.2,58.5,50.7,61.7z M129.3,74.2
			c4.5-0.9,7.4-3.1,9.7-6c3.7-4.5,3.1-10.4-1.4-14.2c-1.6,1.8-3.1,3.7-4.8,5.3C128.4,63.5,128.7,68.6,129.3,74.2z M40.5,101
			c-1-2.7-1.9-5.2-3-8c-1.3,2.3-2.5,4.3-3.7,6.2c1.3,2.2,2.5,4.3,3.9,6.7C38.8,104.1,39.6,102.5,40.5,101z M118.2,72.6
			c-1.5,1.6-2.7,2.8-3.8,4c0.8,1.4,1.4,2.4,2.2,3.7c1.3-1.4,2.4-2.7,3.4-3.9C119.4,75.2,118.9,74.1,118.2,72.6z M120.1,65.8
			c0.9,0.9,1.7,1.8,2.7,2.8c1.1-1,2-1.8,2.9-2.6c-0.7-1.4-1.2-2.5-1.8-3.8C122.5,63.5,121.4,64.6,120.1,65.8z"/>
		<path d="M123.2,111.7c-0.8-3.3,0-6.3,2-9.1c1.1-1.5,2.8-2,4.6-1.3c1.6,0.6,2.1,1.9,2.1,3.6C131.9,110,128.3,112.9,123.2,111.7z"/>
		<path d="M109.3,24.3c1.2-2.1,3.4-2.8,5.4-3.5C113.4,22.6,111.4,23.6,109.3,24.3C109.3,24.2,109.3,24.3,109.3,24.3z"/>
		<path d="M22.1,207.3c-0.7,0.7-1.4,1.4-2.1,2.1c-0.2-0.2-0.5-0.5-0.7-0.7c0.8-0.4,1.5-0.9,2.3-1.3
			C21.7,207.2,21.9,207.2,22.1,207.3z"/>
		<path d="M121,31.3c-0.1,1.5-1.1,2.3-2.9,3.3C119,32.8,119.6,31.7,121,31.3C121.1,31.4,121,31.3,121,31.3z"/>
		<path d="M42.9,218.5c-0.5,1.9-2.3,1.7-3.6,2.3C40.5,220.1,41.7,219.3,42.9,218.5z"/>
		<path d="M104.4,72.3c-1.3-0.3-2.7-0.7-4-1c0-0.2,0.1-0.4,0.1-0.5c1.3,0.3,2.7,0.7,4,1C104.5,71.9,104.5,72.1,104.4,72.3z"/>
	</g>
</g>
</svg>
